<svg xmlns="http://www.w3.org/2000/svg" viewBox="0 -0.5 32 32" shape-rendering="crispEdges">
<path stroke="rgba(192,0,9,0.34901960784313724)" d="M6 7h1M22 27h1" />
<path stroke="rgba(188,0,12,0.16470588235294117)" d="M7 7h1M21 27h1" />
<path stroke="rgba(191,0,9,0.32941176470588235)" d="M21 7h1" />
<path stroke="rgba(192,0,8,0.6509803921568628)" d="M22 7h1M23 8h1" />
<path stroke="rgba(170,0,0,0.011764705882352941)" d="M23 7h1M24 8h1" />
<path stroke="rgba(191,0,8,0.37254901960784315)" d="M5 8h1" />
<path stroke="rgba(192,0,9,0.9882352941176471)" d="M6 8h1M5 9h1M22 26h1" />
<path stroke="rgba(192,0,9,0.9176470588235294)" d="M7 8h1M21 26h1" />
<path stroke="rgba(191,0,5,0.18823529411764706)" d="M8 8h1M20 26h1" />
<path stroke="rgba(190,0,7,0.3058823529411765)" d="M20 8h1" />
<path stroke="rgba(193,0,9,0.9764705882352941)" d="M21 8h1M20 9h1M13 14h1M15 20h1" />
<path stroke="#c00009" d="M22 8h1M6 9h2M21 9h3M5 10h4M20 10h3M6 11h4M19 11h4M7 12h4M18 12h4M8 13h4M17 13h4M9 14h4M16 14h4M10 15h9M12 16h6M12 17h5M12 18h5M11 19h8M10 20h4M16 20h4M9 21h4M17 21h4M8 22h4M18 22h4M7 23h4M19 23h4M6 24h4M20 24h4M6 25h3M21 25h2M7 26h1" />
<path stroke="rgba(195,0,8,0.3803921568627451)" d="M4 9h1" />
<path stroke="rgba(193,0,9,0.9294117647058824)" d="M8 9h1" />
<path stroke="rgba(191,0,5,0.20392156862745098)" d="M9 9h1" />
<path stroke="rgba(191,0,11,0.2823529411764706)" d="M19 9h1" />
<path stroke="rgba(192,0,9,0.6352941176470588)" d="M24 9h1" />
<path stroke="rgba(192,0,10,0.6235294117647059)" d="M4 10h1" />
<path stroke="rgba(192,0,8,0.9411764705882353)" d="M9 10h1M17 12h1M16 13h1M19 24h1" />
<path stroke="rgba(190,0,9,0.23137254901960785)" d="M10 10h1M18 24h1" />
<path stroke="rgba(190,0,8,0.2627450980392157)" d="M18 10h1" />
<path stroke="rgba(193,0,8,0.9607843137254902)" d="M19 10h1M18 11h1M11 12h1M17 22h1" />
<path stroke="rgba(192,0,9,0.996078431372549)" d="M23 10h1M11 16h1M17 18h1" />
<path stroke="rgba(193,0,10,0.403921568627451)" d="M24 10h1" />
<path stroke="rgba(255,0,0,0.00392156862745098)" d="M4 11h1M5 12h1M19 16h1M18 17h1M23 22h1" />
<path stroke="rgba(193,0,8,0.596078431372549)" d="M5 11h1M23 23h1" />
<path stroke="rgba(192,0,8,0.9529411764705882)" d="M10 11h1M18 23h1" />
<path stroke="rgba(190,0,8,0.24705882352941178)" d="M11 11h1" />
<path stroke="rgba(192,0,8,0.23921568627450981)" d="M17 11h1" />
<path stroke="rgba(193,0,7,0.43529411764705883)" d="M23 11h1" />
<path stroke="rgba(192,0,9,0.5725490196078431)" d="M6 12h1M22 22h1" />
<path stroke="rgba(190,0,11,0.2784313725490196)" d="M12 12h1M16 22h1" />
<path stroke="rgba(190,0,9,0.21568627450980393)" d="M16 12h1" />
<path stroke="rgba(194,0,9,0.4588235294117647)" d="M22 12h1" />
<path stroke="rgba(193,0,8,0.5333333333333333)" d="M7 13h1" />
<path stroke="rgba(192,0,9,0.9725490196078431)" d="M12 13h1M16 21h1" />
<path stroke="rgba(191,0,7,0.2980392156862745)" d="M13 13h1M15 21h1" />
<path stroke="rgba(189,0,5,0.19607843137254902)" d="M15 13h1" />
<path stroke="rgba(192,0,8,0.49411764705882355)" d="M21 13h1" />
<path stroke="rgba(194,0,10,0.5058823529411764)" d="M8 14h1M11 17h1M20 20h1" />
<path stroke="rgba(193,0,9,0.4666666666666667)" d="M14 14h1" />
<path stroke="rgba(192,0,9,0.9215686274509803)" d="M15 14h1" />
<path stroke="rgba(193,0,10,0.5176470588235295)" d="M20 14h1" />
<path stroke="rgba(194,0,8,0.4745098039215686)" d="M9 15h1M19 19h1" />
<path stroke="rgba(194,0,7,0.5529411764705883)" d="M19 15h1" />
<path stroke="rgba(194,0,7,0.4392156862745098)" d="M10 16h1M18 18h1" />
<path stroke="rgba(193,0,9,0.5803921568627451)" d="M18 16h1" />
<path stroke="rgba(193,0,8,0.7686274509803922)" d="M17 17h1" />
<path stroke="rgba(191,0,9,0.10980392156862745)" d="M10 18h1" />
<path stroke="rgba(193,0,9,0.8666666666666667)" d="M11 18h1" />
<path stroke="rgba(194,0,10,0.09803921568627451)" d="M9 19h1" />
<path stroke="rgba(192,0,9,0.8549019607843137)" d="M10 19h1" />
<path stroke="rgba(194,0,0,0.08235294117647059)" d="M8 20h1M8 27h1" />
<path stroke="rgba(193,0,8,0.8352941176470589)" d="M9 20h1" />
<path stroke="rgba(192,0,8,0.7803921568627451)" d="M14 20h1M6 23h1" />
<path stroke="rgba(188,0,0,0.07450980392156863)" d="M7 21h1" />
<path stroke="rgba(193,0,9,0.8196078431372549)" d="M8 21h1" />
<path stroke="rgba(193,0,8,0.7098039215686275)" d="M13 21h1" />
<path stroke="rgba(170,0,0,0.023529411764705882)" d="M14 21h1" />
<path stroke="rgba(194,0,7,0.5372549019607843)" d="M21 21h1" />
<path stroke="rgba(187,0,17,0.058823529411764705)" d="M6 22h1M10 25h1" />
<path stroke="rgba(192,0,9,0.8)" d="M7 22h1" />
<path stroke="rgba(192,0,8,0.7333333333333333)" d="M12 22h1" />
<path stroke="rgba(198,0,28,0.03529411764705882)" d="M13 22h1" />
<path stroke="rgba(182,0,18,0.054901960784313725)" d="M5 23h1" />
<path stroke="rgba(193,0,9,0.7568627450980392)" d="M11 23h1M5 24h1" />
<path stroke="rgba(179,0,26,0.0392156862745098)" d="M12 23h1M4 24h1" />
<path stroke="rgba(191,0,8,0.25098039215686274)" d="M17 23h1" />
<path stroke="rgba(128,0,0,0.00784313725490196)" d="M24 23h1" />
<path stroke="rgba(192,0,8,0.7764705882352941)" d="M10 24h1" />
<path stroke="rgba(196,0,20,0.050980392156862744)" d="M11 24h1" />
<path stroke="rgba(193,0,10,0.6274509803921569)" d="M24 24h1" />
<path stroke="rgba(191,0,8,0.12549019607843137)" d="M4 25h1" />
<path stroke="rgba(193,0,8,0.8980392156862745)" d="M5 25h1" />
<path stroke="rgba(192,0,9,0.796078431372549)" d="M9 25h1" />
<path stroke="rgba(192,0,10,0.20784313725490197)" d="M19 25h1" />
<path stroke="rgba(192,0,9,0.9333333333333333)" d="M20 25h1" />
<path stroke="rgba(193,0,9,0.9921568627450981)" d="M23 25h1" />
<path stroke="rgba(193,0,10,0.3843137254901961)" d="M24 25h1" />
<path stroke="rgba(190,0,13,0.15294117647058825)" d="M5 26h1" />
<path stroke="rgba(192,0,8,0.9058823529411765)" d="M6 26h1" />
<path stroke="rgba(192,0,9,0.8156862745098039)" d="M8 26h1" />
<path stroke="rgba(184,0,0,0.07058823529411765)" d="M9 26h1" />
<path stroke="rgba(191,0,8,0.3764705882352941)" d="M23 26h1" />
<path stroke="rgba(193,0,12,0.1607843137254902)" d="M6 27h1" />
<path stroke="rgba(192,0,9,0.7450980392156863)" d="M7 27h1" />
</svg>