<svg xmlns="http://www.w3.org/2000/svg" viewBox="0 -0.5 32 32" shape-rendering="crispEdges">
<path stroke="rgba(0,146,68,0.4588235294117647)" d="M26 4h1" />
<path stroke="rgba(0,146,67,0.5686274509803921)" d="M27 4h1" />
<path stroke="rgba(0,128,128,0.00784313725490196)" d="M28 4h1" />
<path stroke="rgba(0,147,66,0.3803921568627451)" d="M25 5h1" />
<path stroke="rgba(0,145,67,0.996078431372549)" d="M26 5h1M26 9h1M14 18h1M14 22h1" />
<path stroke="#009143" d="M27 5h1M26 6h3M25 7h3M24 8h3M23 9h3M22 10h4M21 11h4M20 12h4M3 13h1M19 13h4M2 14h3M18 14h4M1 15h5M17 15h4M2 16h5M16 16h4M3 17h5M15 17h4M4 18h5M15 18h3M5 19h5M14 19h3M6 20h5M13 20h3M7 21h8M8 22h6M9 23h5M10 24h3" />
<path stroke="rgba(0,146,67,0.6588235294117647)" d="M28 5h1" />
<path stroke="rgba(0,146,73,0.027450980392156862)" d="M29 5h1" />
<path stroke="rgba(0,144,65,0.3058823529411765)" d="M24 6h1M28 8h1M16 21h1" />
<path stroke="rgba(0,145,67,0.9882352941176471)" d="M25 6h1M27 8h1M1 14h1M13 19h1M15 21h1" />
<path stroke="rgba(0,146,67,0.6862745098039216)" d="M29 6h1" />
<path stroke="rgba(0,143,70,0.25882352941176473)" d="M23 7h1M29 7h1M4 12h1M8 24h1" />
<path stroke="rgba(0,145,67,0.9764705882352941)" d="M24 7h1M12 20h1M9 24h1" />
<path stroke="rgba(0,145,67,0.9647058823529412)" d="M28 7h1" />
<path stroke="rgba(0,144,67,0.20784313725490197)" d="M22 8h1M5 13h1" />
<path stroke="rgba(0,146,67,0.9411764705882353)" d="M23 8h1M4 13h1M17 19h1" />
<path stroke="rgba(0,141,67,0.14901960784313725)" d="M21 9h1" />
<path stroke="rgba(0,145,66,0.9176470588235294)" d="M22 9h1M5 14h1M18 18h1M7 22h1" />
<path stroke="rgba(0,145,67,0.37254901960784315)" d="M27 9h1" />
<path stroke="rgba(0,146,73,0.10980392156862745)" d="M20 10h1M7 15h1M20 17h1" />
<path stroke="rgba(0,145,66,0.8901960784313725)" d="M21 10h1M6 15h1M6 21h1" />
<path stroke="rgba(0,146,67,0.45098039215686275)" d="M26 10h1" />
<path stroke="rgba(0,142,57,0.03529411764705882)" d="M3 11h1M10 18h1" />
<path stroke="rgba(0,146,73,0.08235294117647059)" d="M19 11h1M8 16h1M21 16h1M4 20h1" />
<path stroke="rgba(0,145,67,0.8392156862745098)" d="M20 11h1" />
<path stroke="rgba(0,145,68,0.5294117647058824)" d="M25 11h1M15 16h1M13 24h1" />
<path stroke="rgba(0,146,69,0.24705882352941178)" d="M2 12h1" />
<path stroke="rgba(0,145,67,0.9058823529411765)" d="M3 12h1" />
<path stroke="rgba(0,146,73,0.054901960784313725)" d="M18 12h1" />
<path stroke="rgba(0,145,68,0.7843137254901961)" d="M19 12h1M21 15h1" />
<path stroke="rgba(0,145,68,0.592156862745098)" d="M24 12h1" />
<path stroke="rgba(0,255,0,0.00392156862745098)" d="M25 12h1M15 15h1M0 16h1" />
<path stroke="rgba(0,143,67,0.32941176470588235)" d="M1 13h1" />
<path stroke="rgba(0,145,67,0.9686274509803922)" d="M2 13h1" />
<path stroke="rgba(0,127,85,0.023529411764705882)" d="M17 13h1M23 14h1" />
<path stroke="rgba(0,146,67,0.7411764705882353)" d="M18 13h1M22 14h1M9 18h1" />
<path stroke="rgba(0,146,68,0.6666666666666666)" d="M23 13h1" />
<path stroke="rgba(0,170,85,0.011764705882352941)" d="M24 13h1M16 14h1M11 19h1" />
<path stroke="rgba(0,147,67,0.41568627450980394)" d="M0 14h1" />
<path stroke="rgba(0,144,72,0.15294117647058825)" d="M6 14h1" />
<path stroke="rgba(0,145,67,0.6823529411764706)" d="M17 14h1" />
<path stroke="rgba(0,145,68,0.5725490196078431)" d="M0 15h1" />
<path stroke="rgba(0,146,67,0.6078431372549019)" d="M16 15h1" />
<path stroke="rgba(0,153,77,0.0392156862745098)" d="M22 15h1M2 18h1" />
<path stroke="rgba(0,146,67,0.6431372549019608)" d="M1 16h1" />
<path stroke="rgba(0,146,67,0.8509803921568627)" d="M7 16h1" />
<path stroke="rgba(0,146,68,0.8235294117647058)" d="M20 16h1" />
<path stroke="rgba(0,128,64,0.01568627450980392)" d="M1 17h1" />
<path stroke="rgba(0,146,68,0.6941176470588235)" d="M2 17h1M10 19h1" />
<path stroke="rgba(0,146,68,0.796078431372549)" d="M8 17h1" />
<path stroke="rgba(0,136,68,0.058823529411764705)" d="M9 17h1M3 19h1" />
<path stroke="rgba(0,147,66,0.47058823529411764)" d="M14 17h1" />
<path stroke="rgba(0,145,67,0.8784313725490196)" d="M19 17h1" />
<path stroke="rgba(0,145,68,0.7529411764705882)" d="M3 18h1" />
<path stroke="rgba(0,144,67,0.38823529411764707)" d="M13 18h1" />
<path stroke="rgba(0,142,71,0.1411764705882353)" d="M19 18h1" />
<path stroke="rgba(0,145,68,0.8117647058823529)" d="M4 19h1" />
<path stroke="rgba(0,143,67,0.3137254901960784)" d="M12 19h1M9 25h1" />
<path stroke="rgba(0,146,68,0.19215686274509805)" d="M18 19h1" />
<path stroke="rgba(0,146,66,0.8588235294117647)" d="M5 20h1" />
<path stroke="rgba(0,145,67,0.7294117647058823)" d="M11 20h1" />
<path stroke="rgba(0,145,67,0.9607843137254902)" d="M16 20h1" />
<path stroke="rgba(0,145,71,0.2549019607843137)" d="M17 20h1" />
<path stroke="rgba(0,144,68,0.11764705882352941)" d="M5 21h1" />
<path stroke="rgba(0,142,71,0.16862745098039217)" d="M6 22h1" />
<path stroke="rgba(0,145,66,0.36470588235294116)" d="M15 22h1" />
<path stroke="rgba(0,144,70,0.21568627450980393)" d="M7 23h1" />
<path stroke="rgba(0,145,66,0.9490196078431372)" d="M8 23h1" />
<path stroke="rgba(0,147,68,0.44313725490196076)" d="M14 23h1" />
<path stroke="rgba(0,146,67,0.6705882352941176)" d="M10 25h1" />
<path stroke="rgba(0,145,67,0.4470588235294118)" d="M11 25h1" />
<path stroke="rgba(0,146,67,0.5803921568627451)" d="M12 25h1" />
</svg>