<svg xmlns="http://www.w3.org/2000/svg" viewBox="0 -0.5 64 64" shape-rendering="crispEdges">
<path stroke="rgba(93,93,93,0.8509803921568627)" d="M9 9h1" />
<path stroke="#636363" d="M10 9h6M10 10h6M9 11h1M53 12h1M9 13h1M9 14h1M9 15h1M9 16h1M9 17h1M9 18h1M9 19h1M9 20h1M9 21h1M9 22h1M9 23h1M9 24h1M9 30h1M9 31h1M9 32h1M11 42h5" />
<path stroke="#646464" d="M16 9h1M16 10h1M9 25h1M9 26h1M9 27h1M9 28h1M9 29h1M9 33h1M9 34h1M9 35h1M9 36h1M9 37h1M9 38h1M9 39h1M9 40h1M9 41h1M9 42h2" />
<path stroke="#666666" d="M17 9h1M17 10h1M17 11h1M17 12h1M17 13h1M17 14h1M17 15h1M17 16h1M17 17h1M17 18h1M17 19h1M17 20h1M17 21h1M17 22h1M17 23h1M17 24h1M17 25h1M17 26h1M17 27h1M17 28h1M17 29h1M17 30h1M17 31h1M17 32h1M17 33h1M17 34h1M17 35h1M17 36h1M17 37h1M17 38h1M17 39h1M17 40h1M17 41h1M16 42h2M10 43h1M12 43h3M16 43h2M9 44h3M15 44h3M16 45h2M17 46h1M17 47h1M17 48h1M10 49h1M17 49h1M9 50h3M15 50h1M17 50h1M9 51h7M17 51h1" />
<path stroke="#6a6a6a" d="M18 9h36M54 13h1M54 14h1M54 15h1M54 16h1M54 17h1M54 18h1M54 19h1M54 20h1M54 21h1M54 22h1M54 23h1M54 24h1M54 25h1M54 26h1M54 27h1M54 28h1M54 29h1M54 30h1M54 31h1M54 32h1M54 33h1M54 34h1M54 35h1M54 36h1M54 37h1M54 38h1M54 39h1M54 40h1M54 41h1M54 42h1M54 43h1M54 44h1M54 45h1M54 46h1M54 47h1M54 49h1M54 50h1" />
<path stroke="rgba(88,88,88,0.8823529411764706)" d="M54 9h1" />
<path stroke="rgba(98,98,98,0.9882352941176471)" d="M9 10h1" />
<path stroke="#626262" d="M18 10h36M53 11h1M53 13h1M53 14h1M53 15h1M53 16h1M53 17h1M53 18h1M53 19h1M53 20h1M53 21h1M53 22h1M53 23h1M53 24h1M53 25h1M53 26h1M53 27h1M53 28h1M53 29h1M53 30h1M53 31h1M53 32h1M53 33h1M53 34h1M53 35h1M53 36h1M53 37h1M53 38h1M53 39h1M53 40h1M53 41h1M53 42h1M53 43h1M53 44h1M53 45h1M53 46h1M53 47h1M53 48h1M53 49h1M53 50h1M53 51h1" />
<path stroke="rgba(97,97,97,0.9882352941176471)" d="M54 10h1" />
<path stroke="#4f4f4f" d="M10 11h7M10 12h1M16 12h1M10 13h1M16 13h1M10 14h1M16 14h1M10 15h1M16 15h1M10 16h1M16 16h1M10 17h1M16 17h1M10 18h1M16 18h1M10 19h1M16 19h1M10 20h1M16 20h1M10 21h1M16 21h1M10 22h1M16 22h1M10 23h1M16 23h1M10 24h1M16 24h1M10 25h1M16 25h1M10 26h1M16 26h1M10 27h1M16 27h1M10 28h1M16 28h1M10 29h1M16 29h1M10 30h1M16 30h1M10 31h1M16 31h1M10 32h1M16 32h1M10 33h1M16 33h1M10 34h1M16 34h1M10 35h1M16 35h1M10 36h1M16 36h1M10 37h1M16 37h1M10 38h1M16 38h1M10 39h1M16 39h1M10 40h1M16 40h1M10 41h7" />
<path stroke="#4e4e4e" d="M18 11h35M18 12h1M52 12h1M18 13h1M52 13h1M18 14h1M52 14h1M18 15h1M52 15h1M18 16h1M52 16h1M18 17h1M52 17h1M18 18h1M52 18h1M18 19h1M52 19h1M18 20h1M52 20h1M18 21h1M52 21h1M18 22h1M52 22h1M18 23h1M52 23h1M18 24h1M52 24h1M18 25h1M52 25h1M18 26h1M52 26h1M18 27h1M52 27h1M18 28h1M52 28h1M18 29h1M52 29h1M18 30h1M52 30h1M18 31h1M52 31h1M18 32h1M52 32h1M18 33h1M52 33h1M18 34h1M52 34h1M18 35h1M52 35h1M18 36h1M52 36h1M18 37h1M52 37h1M18 38h1M52 38h1M18 39h1M52 39h1M18 40h1M52 40h1M18 41h1M52 41h1M18 42h1M52 42h1M18 43h35M18 44h1M52 44h1M18 45h1M52 45h1M18 46h1M52 46h1M18 47h1M52 47h1M18 48h1M52 48h1M18 49h1M52 49h1M18 50h1M52 50h1M18 51h35" />
<path stroke="rgba(104,104,104,0.9882352941176471)" d="M54 11h1" />
<path stroke="rgba(97,97,97,0.996078431372549)" d="M9 12h1" />
<path stroke="#44891a" d="M11 12h5M11 13h5M11 14h5M11 15h5M11 16h5M11 17h5M11 18h5M11 19h5M11 20h5M11 21h5M11 22h5M11 23h5M11 24h5M11 25h5M11 26h5M11 27h5M11 28h5M11 29h5M11 30h5M11 31h5M11 32h5M11 33h5M11 34h5M11 35h5M11 36h5M11 37h5M11 38h5M11 39h5M11 40h5" />
<path stroke="#595959" d="M19 12h33M19 13h2M27 13h25M19 14h1M30 14h22M19 15h2M32 15h20M19 16h6M34 16h18M19 17h9M36 17h16M19 18h12M38 18h14M19 19h3M24 19h9M39 19h13M19 20h2M27 20h8M40 20h12M19 21h2M29 21h8M41 21h11M19 22h5M31 22h7M42 22h10M19 23h8M33 23h6M43 23h9M19 24h10M34 24h6M44 24h8M19 25h12M35 25h6M45 25h7M19 26h14M36 26h6M45 26h7M19 27h5M26 27h8M37 27h5M46 27h6M19 28h4M28 28h7M38 28h5M46 28h6M19 29h4M30 29h6M39 29h4M47 29h5M19 30h6M31 30h5M39 30h5M47 30h5M19 31h8M32 31h5M40 31h4M48 31h4M19 32h10M33 32h4M40 32h5M48 32h4M19 33h11M34 33h4M41 33h4M49 33h3M19 34h12M34 34h4M41 34h4M49 34h3M19 35h6M27 35h4M35 35h4M42 35h4M49 35h3M19 36h5M28 36h4M35 36h4M42 36h4M50 36h2M19 37h5M28 37h4M36 37h3M42 37h4M50 37h2M19 38h6M27 38h6M36 38h4M43 38h4M50 38h2M19 39h14M35 39h5M43 39h4M50 39h2M19 40h21M42 40h5M50 40h2M19 41h28M50 41h2M19 42h29M49 42h3M19 44h33M19 45h2M24 45h2M29 45h1M32 45h1M35 45h2M39 45h2M46 45h1M50 45h2M19 46h2M22 46h2M25 46h1M27 46h3M31 46h1M33 46h1M35 46h1M37 46h2M40 46h3M44 46h3M48 46h4M19 47h2M25 47h1M29 47h1M31 47h1M33 47h1M35 47h1M37 47h2M40 47h3M44 47h3M50 47h2M19 48h2M22 48h1M24 48h2M27 48h3M31 48h3M35 48h1M37 48h2M40 48h3M44 48h3M48 48h4M19 49h2M22 49h2M25 49h1M29 49h1M31 49h3M35 49h2M39 49h4M44 49h3M50 49h2M19 50h20" />
<path stroke="#686868" d="M54 12h1M9 46h1M9 47h1M9 48h1" />
<path stroke="#0f0f0f" d="M21 13h6M20 14h1M27 14h3M21 15h4M30 15h2M25 16h3M32 16h2M28 17h3M34 17h2M31 18h2M36 18h2M22 19h2M33 19h2M38 19h1M21 20h1M24 20h3M35 20h2M39 20h1M21 21h3M27 21h2M37 21h1M40 21h1M24 22h3M29 22h2M38 22h1M41 22h1M27 23h2M31 23h2M39 23h1M42 23h1M29 24h2M33 24h1M40 24h1M43 24h1M31 25h2M34 25h1M41 25h1M44 25h1M33 26h1M35 26h1M42 26h1M44 26h1M24 27h2M34 27h1M36 27h1M42 27h1M45 27h1M23 28h1M26 28h2M35 28h1M37 28h1M43 28h1M45 28h1M23 29h2M28 29h2M36 29h1M38 29h1M43 29h1M46 29h1M25 30h2M30 30h1M36 30h1M38 30h1M44 30h1M46 30h1M27 31h2M31 31h1M37 31h1M39 31h1M44 31h1M47 31h1M29 32h1M32 32h1M37 32h1M39 32h1M45 32h1M47 32h1M30 33h1M33 33h1M38 33h1M40 33h1M45 33h1M48 33h1M31 34h1M33 34h1M38 34h1M40 34h1M45 34h1M48 34h1M31 35h1M34 35h1M39 35h1M41 35h1M46 35h1M48 35h1M32 36h1M34 36h1M39 36h1M41 36h1M46 36h1M49 36h1M32 37h1M35 37h1M39 37h1M41 37h1M46 37h1M49 37h1M33 38h1M35 38h1M40 38h1M42 38h1M47 38h1M49 38h1M33 39h2M40 39h1M42 39h1M47 39h1M49 39h1M40 40h2M47 40h1M49 40h1M47 41h1M49 41h1M48 42h1M10 47h1M10 48h1" />
<path stroke="#292929" d="M21 14h6M25 15h5M28 16h4M31 17h3M33 18h3M35 19h3M22 20h2M37 20h2M24 21h3M38 21h2M27 22h2M39 22h2M29 23h2M40 23h2M31 24h2M41 24h2M33 25h1M42 25h2M34 26h1M43 26h1M35 27h1M43 27h2M36 28h1M44 28h1M37 29h1M44 29h2M37 30h1M45 30h1M38 31h1M45 31h2M38 32h1M46 32h1M39 33h1M46 33h1M39 34h1M33 37h1M34 38h1" />
<path stroke="#2d2d2d" d="M24 28h2M25 29h3M27 30h3M29 31h2M30 32h2M31 33h1M32 34h1M32 35h2M26 37h1" />
<path stroke="#2e2e2e" d="M32 33h1" />
<path stroke="#272727" d="M47 33h1M46 34h2M25 35h2M40 35h1M24 36h1M27 36h1M40 36h1M24 37h1M27 37h1M25 38h2M11 49h1" />
<path stroke="#242424" d="M47 35h1M47 36h2M47 37h2M48 38h1M48 39h1" />
<path stroke="#333333" d="M25 36h1" />
<path stroke="#303030" d="M26 36h1M25 37h1" />
<path stroke="#2b2b2b" d="M33 36h1" />
<path stroke="#262626" d="M34 37h1M40 37h1" />
<path stroke="#232323" d="M41 38h1M41 39h1M48 41h1" />
<path stroke="#212121" d="M48 40h1" />
<path stroke="#656565" d="M9 43h1M11 43h1M15 43h1M16 49h1M16 50h1M16 51h1" />
<path stroke="#424242" d="M12 44h2M15 45h1M15 49h1" />
<path stroke="#494949" d="M14 44h1" />
<path stroke="#676767" d="M9 45h2M9 49h1" />
<path stroke="#313131" d="M11 45h1M14 50h1" />
<path stroke="#942935" d="M12 45h2" />
<path stroke="#af2c3a" d="M14 45h1" />
<path stroke="#717171" d="M21 45h3M26 45h2M21 46h1M24 46h1M26 46h1M21 47h4M26 47h1M21 48h1M23 48h1M26 48h1M21 49h1M24 49h1M26 49h1" />
<path stroke="#727272" d="M28 45h1M30 45h2M33 45h2M37 45h2M41 45h5M47 45h3M30 46h1M32 46h1M34 46h1M36 46h1M39 46h1M43 46h1M47 46h1M27 47h2M30 47h1M32 47h1M34 47h1M36 47h1M39 47h1M43 47h1M47 47h3M30 48h1M34 48h1M36 48h1M39 48h1M43 48h1M47 48h1M27 49h2M30 49h1M34 49h1M37 49h2M43 49h1M47 49h3" />
<path stroke="#1c1c1c" d="M10 46h1M12 50h2" />
<path stroke="#682e34" d="M11 46h1" />
<path stroke="#b22635" d="M12 46h2" />
<path stroke="#b22a39" d="M14 46h1" />
<path stroke="#a5333f" d="M15 46h1" />
<path stroke="#3a3a3a" d="M16 46h1M16 47h1M16 48h1" />
<path stroke="#921c28" d="M11 47h1M11 48h1" />
<path stroke="#a91829" d="M12 47h2M12 48h2" />
<path stroke="#962b37" d="M14 47h1M14 48h1" />
<path stroke="#a9313e" d="M15 47h1M15 48h1" />
<path stroke="#6c6c6c" d="M54 48h1" />
<path stroke="#7e1c27" d="M12 49h2" />
<path stroke="#76242c" d="M14 49h1" />
<path stroke="#5a5a5a" d="M39 50h13" />
<path stroke="rgba(97,97,97,0.9921568627450981)" d="M54 51h1" />
<path stroke="rgba(75,75,75,0.9529411764705882)" d="M9 52h1M54 52h1M10 53h13M24 53h10M35 53h19M11 54h24M36 54h17" />
<path stroke="rgba(76,76,76,0.9568627450980393)" d="M10 52h44" />
<path stroke="rgba(101,101,101,0.9764705882352941)" d="M9 53h1M54 53h1M10 54h1M53 54h1" />
<path stroke="rgba(73,73,73,0.9529411764705882)" d="M23 53h1M34 53h1M35 54h1" />
<path stroke="rgba(113,113,113,0.9882352941176471)" d="M9 54h1M54 54h1" />
</svg>