<svg xmlns="http://www.w3.org/2000/svg" viewBox="0 -0.5 32 32" shape-rendering="crispEdges">
<path stroke="rgba(165,165,45,0.06666666666666667)" d="M11 5h1M21 6h1M22 7h1M13 9h1M23 12h1" />
<path stroke="rgba(171,167,34,0.4666666666666667)" d="M12 5h1M18 5h1M22 8h1M8 10h1M18 10h1" />
<path stroke="rgba(171,166,35,0.8666666666666667)" d="M13 5h1M21 7h1M9 8h1M17 14h1" />
<path stroke="#aba622" d="M14 5h3M11 6h9M10 7h11M10 8h3M18 8h4M9 9h3M19 9h3M9 10h3M19 10h4M9 11h3M19 11h4M19 12h4M19 13h3M18 14h4M16 15h5M15 16h5M15 17h3M14 18h4M14 19h3M14 20h3M14 23h4M14 24h4M14 25h4M14 26h4" />
<path stroke="rgba(171,166,33,0.9333333333333333)" d="M17 5h1M12 9h1M22 9h1M18 13h1M18 17h1" />
<path stroke="rgba(169,165,34,0.26666666666666666)" d="M19 5h1M9 7h1M8 9h1M22 14h1M15 15h1M18 18h1" />
<path stroke="rgba(171,168,33,0.3333333333333333)" d="M10 6h1M20 16h1" />
<path stroke="rgba(171,167,35,0.6666666666666666)" d="M20 6h1" />
<path stroke="rgba(172,166,34,0.7333333333333333)" d="M13 8h1M18 9h1M22 13h1M14 17h1M17 20h1" />
<path stroke="rgba(173,165,30,0.13333333333333333)" d="M14 8h1M23 10h1M23 11h1M17 13h1M13 19h1M13 20h1" />
<path stroke="rgba(172,167,33,0.6)" d="M17 8h1M8 11h1" />
<path stroke="rgba(173,167,34,0.5333333333333333)" d="M12 10h1M18 12h1" />
<path stroke="rgba(172,168,35,0.4)" d="M12 11h1M18 11h1M21 15h1M13 23h1M13 24h1M13 25h1M13 26h1" />
<path stroke="rgba(170,165,35,0.2)" d="M16 14h1M14 16h1M19 17h1" />
<path stroke="rgba(171,166,34,0.8)" d="M17 19h1" />
</svg>