<svg xmlns="http://www.w3.org/2000/svg" viewBox="0 -0.5 128 128" shape-rendering="crispEdges">
<path stroke="rgba(255,255,255,0.11372549019607843)" d="M53 2h1M42 5h1M2 53h1" />
<path stroke="rgba(255,255,255,0.2823529411764706)" d="M54 2h1M2 54h1" />
<path stroke="rgba(255,255,255,0.41568627450980394)" d="M55 2h1M72 2h1M2 72h1" />
<path stroke="rgba(255,255,255,0.5411764705882353)" d="M56 2h1M71 2h1M2 56h1M2 71h1" />
<path stroke="rgba(255,255,255,0.6627450980392157)" d="M57 2h1M2 57h1M2 70h1" />
<path stroke="rgba(255,255,255,0.7529411764705882)" d="M58 2h1M69 2h1M121 41h1M2 58h1M41 121h1" />
<path stroke="rgba(255,255,255,0.8274509803921568)" d="M59 2h1M68 2h1M114 28h1M2 68h1" />
<path stroke="rgba(255,255,255,0.9019607843137255)" d="M60 2h1M67 2h1M2 60h1M2 67h1" />
<path stroke="rgba(255,255,255,0.9333333333333333)" d="M61 2h1M66 2h1M52 3h1M75 3h1M39 7h1M94 10h1M120 39h1M3 52h1M125 61h1M125 66h1M120 88h1M61 125h1M66 125h1" />
<path stroke="rgba(255,255,255,0.9647058823529412)" d="M62 2h1M100 14h1M92 118h1" />
<path stroke="#ffffff" d="M63 2h2M53 3h22M49 4h12M62 4h17M45 5h37M43 6h42M40 7h8M49 7h10M60 7h26M87 7h1M38 8h15M75 8h15M36 9h13M79 9h9M89 9h3M34 10h12M82 10h12M32 11h11M85 11h8M94 11h2M31 12h9M88 12h9M29 13h9M90 13h9M28 14h8M92 14h8M26 15h9M93 15h1M95 15h7M25 16h1M27 16h2M30 16h3M95 16h4M101 16h2M24 17h8M96 17h8M23 18h3M27 18h3M98 18h7M22 19h4M27 19h2M99 19h7M21 20h7M100 20h7M20 21h7M101 21h7M19 22h4M24 22h1M103 22h6M18 23h6M104 23h3M108 23h2M17 24h6M105 24h4M110 24h1M16 25h6M106 25h6M15 26h1M17 26h5M106 26h7M15 27h6M107 27h5M14 28h4M19 28h1M108 28h6M13 29h5M109 29h6M13 30h5M110 30h5M12 31h6M110 31h6M11 32h3M15 32h2M111 32h6M11 33h5M112 33h5M10 34h6M112 34h6M10 35h5M27 35h14M113 35h5M9 36h1M11 36h3M27 36h14M42 36h4M115 36h4M9 37h5M26 37h15M42 37h3M46 37h3M114 37h5M8 38h5M26 38h25M115 38h4M8 39h5M26 39h12M39 39h6M46 39h7M115 39h5M7 40h5M26 40h1M28 40h26M116 40h5M7 41h5M26 41h28M55 41h1M116 41h5M7 42h5M27 42h2M30 42h27M116 42h5M6 43h4M27 43h31M117 43h5M6 44h5M27 44h14M42 44h5M48 44h8M57 44h1M117 44h5M5 45h6M27 45h1M29 45h24M55 45h4M117 45h6M5 46h5M27 46h21M49 46h10M118 46h5M5 47h3M9 47h1M28 47h32M118 47h3M122 47h1M5 48h5M28 48h8M37 48h22M118 48h5M4 49h5M28 49h21M50 49h9M119 49h5M4 50h5M28 50h8M37 50h5M45 50h1M47 50h7M55 50h2M119 50h2M122 50h2M4 51h5M29 51h13M49 51h5M119 51h5M4 52h5M29 52h3M33 52h9M119 52h5M3 53h5M29 53h1M31 53h11M120 53h5M3 54h5M29 54h2M32 54h4M37 54h3M41 54h2M120 54h5M3 55h5M30 55h13M120 55h5M4 56h4M30 56h7M38 56h5M120 56h5M3 57h3M7 57h1M30 57h10M41 57h3M120 57h5M3 58h5M31 58h3M35 58h9M120 58h5M3 59h5M31 59h14M80 59h3M84 59h1M120 59h5M3 60h5M31 60h14M79 60h7M120 60h5M3 61h5M32 61h14M79 61h8M120 61h5M3 62h5M32 62h14M79 62h5M85 62h3M120 62h5M3 63h2M6 63h2M33 63h14M79 63h3M83 63h5M120 63h5M3 64h5M33 64h14M78 64h10M120 64h5M3 65h5M34 65h6M41 65h7M78 65h7M120 65h5M3 66h5M34 66h1M36 66h7M44 66h4M78 66h6M120 66h5M3 67h5M35 67h14M78 67h5M86 67h2M120 67h1M122 67h3M3 68h5M35 68h14M79 68h4M87 68h1M120 68h5M4 69h4M36 69h14M74 69h3M80 69h3M120 69h5M3 70h1M5 70h3M37 70h7M71 70h6M82 70h1M120 70h4M3 71h5M69 71h7M120 71h5M3 72h1M5 72h3M67 72h3M71 72h5M120 72h5M3 73h5M65 73h11M120 73h5M3 74h5M64 74h11M99 74h2M120 74h5M5 75h2M8 75h1M63 75h12M98 75h3M119 75h5M4 76h5M62 76h12M97 76h5M119 76h5M4 77h5M62 77h11M95 77h8M119 77h5M4 78h5M61 78h12M94 78h9M119 78h5M5 79h5M61 79h1M63 79h9M92 79h12M118 79h5M5 80h2M8 80h2M61 80h11M91 80h13M118 80h5M5 81h5M60 81h11M90 81h12M118 81h5M5 82h6M60 82h11M88 82h13M117 82h6M6 83h5M60 83h7M68 83h3M87 83h10M98 83h3M117 83h5M6 84h5M59 84h11M85 84h16M117 84h5M7 85h5M59 85h6M85 85h10M96 85h5M116 85h6M7 86h5M59 86h1M84 86h6M92 86h9M116 86h5M7 87h6M84 87h17M115 87h6M8 88h4M84 88h2M87 88h1M89 88h13M115 88h5M8 89h5M86 89h16M115 89h5M9 90h5M95 90h5M115 90h4M9 91h5M83 91h16M114 91h5M10 92h5M83 92h14M113 92h5M10 93h6M84 93h5M90 93h7M112 93h6M11 94h5M84 94h12M112 94h4M11 95h4M16 95h1M85 95h9M111 95h6M12 96h6M85 96h6M110 96h6M13 97h4M86 97h1M110 97h5M13 98h6M109 98h6M14 99h6M108 99h6M15 100h6M107 100h5M15 101h7M106 101h7M16 102h6M106 102h6M17 103h6M105 103h6M18 104h3M22 104h2M104 104h6M19 105h6M103 105h2M106 105h1M108 105h1M20 106h7M101 106h7M21 107h7M100 107h7M22 108h7M99 108h2M102 108h4M23 109h6M98 109h5M104 109h1M24 110h8M96 110h8M25 111h8M95 111h8M26 112h9M93 112h5M99 112h3M28 113h8M92 113h8M29 114h9M90 114h9M31 115h10M87 115h10M32 116h11M85 116h11M34 117h12M82 117h2M85 117h7M93 117h1M36 118h8M45 118h4M79 118h13M38 119h1M40 119h13M75 119h15M40 120h3M44 120h44M43 121h1M45 121h8M54 121h32M45 122h38M49 123h30M53 124h8M62 124h13M63 125h2" />
<path stroke="rgba(255,255,255,0.9607843137254902)" d="M65 2h1M125 62h1M125 65h1" />
<path stroke="rgba(255,255,255,0.6588235294117647)" d="M70 2h1" />
<path stroke="rgba(255,255,255,0.2784313725490196)" d="M73 2h1M2 73h1M124 78h1" />
<path stroke="rgba(255,255,255,0.10980392156862745)" d="M74 2h1M92 8h1M8 35h1" />
<path stroke="rgba(255,255,255,0.07450980392156863)" d="M48 3h1M94 9h1M9 33h1M7 37h1M3 48h1M7 90h1M118 94h1" />
<path stroke="rgba(255,255,255,0.30196078431372547)" d="M49 3h1" />
<path stroke="rgba(255,255,255,0.5294117647058824)" d="M50 3h1M125 56h1M84 122h1M71 125h1" />
<path stroke="rgba(255,255,255,0.7490196078431373)" d="M51 3h1M76 3h1M3 51h1M2 69h1M3 76h1" />
<path stroke="rgba(255,255,255,0.5254901960784314)" d="M77 3h1M125 71h1M3 77h1M122 84h1" />
<path stroke="rgba(255,255,255,0.2980392156862745)" d="M78 3h1M3 78h1" />
<path stroke="rgba(255,255,255,0.07058823529411765)" d="M79 3h1M3 79h1M9 94h1M33 118h1M90 120h1" />
<path stroke="rgba(255,255,255,0.21568627450980393)" d="M45 4h1M4 45h1" />
<path stroke="rgba(255,255,255,0.5098039215686274)" d="M46 4h1M4 46h1M124 77h1" />
<path stroke="rgba(255,255,255,0.792156862745098)" d="M47 4h1M4 47h1M121 86h1" />
<path stroke="rgba(255,255,255,0.9921568627450981)" d="M48 4h1M79 4h1M4 48h1M2 63h1M2 64h1M4 79h1" />
<path stroke="#fffeff" d="M61 4h1M82 5h1M59 7h1M86 7h1M93 11h1M94 15h1M99 16h2M26 18h1M26 19h1M23 22h1M109 24h1M16 26h1M112 27h1M18 28h1M18 29h1M10 36h1M26 36h1M41 36h1M114 36h1M41 37h1M45 37h1M119 38h1M38 39h1M45 39h1M27 40h1M54 41h1M29 42h1M10 43h1M41 44h1M47 44h1M56 44h1M53 45h2M48 46h1M121 47h1M36 48h1M49 49h1M36 50h1M54 50h1M32 52h1M30 53h1M31 54h1M36 54h1M3 56h1M37 56h1M6 57h1M40 57h1M5 63h1M40 65h1M35 66h1M43 66h1M121 67h1M3 69h1M4 70h1M124 70h1M4 72h1M4 75h1M7 75h1M62 79h1M89 81h1M97 83h1M95 85h1M90 86h2M12 88h1M86 88h1M88 88h1M114 90h1M97 92h1M15 95h1M17 97h1M112 100h1M21 104h1M105 105h1M107 105h1M29 109h1M98 112h1M84 117h1M44 118h1M43 120h1M53 121h1M61 124h1" />
<path stroke="rgba(255,255,255,0.788235294117647)" d="M80 4h1M116 31h1M4 80h1" />
<path stroke="rgba(255,255,255,0.5058823529411764)" d="M81 4h1M120 38h1M4 81h1" />
<path stroke="rgba(255,255,255,0.21176470588235294)" d="M82 4h1M97 11h1M4 82h1" />
<path stroke="rgba(255,255,255,0.4666666666666667)" d="M43 5h1M38 120h1" />
<path stroke="rgba(255,255,255,0.8509803921568627)" d="M44 5h1M5 44h1M122 44h1M17 104h1" />
<path stroke="rgba(255,255,255,0.8784313725490196)" d="M83 5h1" />
<path stroke="rgba(255,255,255,0.5333333333333333)" d="M84 5h1M36 8h1M3 50h1M89 120h1M56 125h1" />
<path stroke="rgba(255,255,255,0.1411764705882353)" d="M85 5h1" />
<path stroke="rgba(255,255,255,0.054901960784313725)" d="M39 6h1M88 6h1M6 39h1M6 88h1M37 120h1" />
<path stroke="rgba(255,255,255,0.4)" d="M40 6h1M6 40h1M125 72h1" />
<path stroke="rgba(255,255,255,0.7647058823529411)" d="M41 6h1M6 41h1" />
<path stroke="rgba(255,255,255,0.996078431372549)" d="M42 6h1M85 6h1M6 42h1M121 42h1M6 85h1M42 121h1" />
<path stroke="rgba(255,255,255,0.7607843137254902)" d="M86 6h1M6 86h1" />
<path stroke="rgba(255,255,255,0.396078431372549)" d="M87 6h1M6 87h1M10 95h1" />
<path stroke="rgba(255,255,255,0.0784313725490196)" d="M37 7h1M118 33h1M120 37h1M120 90h1" />
<path stroke="rgba(255,255,255,0.5019607843137255)" d="M38 7h1M120 89h1" />
<path stroke="#fefefe" d="M48 7h1M88 9h1M40 12h1M87 12h1M26 16h1M29 16h1M25 22h1M107 23h1M14 32h1M14 36h1M113 36h1M114 38h1M12 40h1M28 45h1M8 47h1M46 50h1M121 50h1M40 54h1M30 58h1M34 58h1M84 62h1M82 63h1M79 69h1M76 71h1M70 72h1M7 80h1M104 80h1M67 83h1M114 89h1M14 91h1M113 91h1M89 93h1M116 94h1M22 102h1M105 102h1M25 105h1M102 105h1M101 108h1M103 109h1M36 113h1M91 113h1M38 114h1M89 114h1M92 117h1M53 119h1M74 119h1M44 121h1" />
<path stroke="rgba(255,255,255,0.9490196078431372)" d="M88 7h1M14 27h1M14 100h1M100 113h1" />
<path stroke="rgba(255,255,255,0.5686274509803921)" d="M89 7h1M91 8h1M98 12h1M12 98h1M25 112h1" />
<path stroke="rgba(255,255,255,0.09411764705882353)" d="M90 7h1M104 16h1M111 23h1M125 74h1M8 92h1M23 111h1" />
<path stroke="rgba(255,255,255,0.09019607843137255)" d="M35 8h1M111 104h1" />
<path stroke="rgba(255,255,255,0.9568627450980393)" d="M37 8h1M90 8h1M27 14h1M113 27h1M119 37h1M119 90h1" />
<path stroke="#fbfbfb" d="M53 8h1M74 8h1M119 53h1M47 64h1M66 72h1M8 74h1M24 104h1" />
<path stroke="#e0e0e0" d="M54 8h1M19 29h1M28 52h1M71 81h1M94 95h1" />
<path stroke="#c7c7c7" d="M55 8h1M72 8h1M86 12h1M43 35h1M113 90h1" />
<path stroke="#b2b2b2" d="M56 8h1M12 41h1M116 44h1M27 49h1" />
<path stroke="#a6a6a6" d="M57 8h1M70 8h1M22 26h1M29 34h1M118 51h1M85 83h1M34 111h1" />
<path stroke="#a1a1a1" d="M58 8h1M62 8h1M65 8h1M69 8h1M66 10h3M73 10h5M50 11h3M56 11h7M66 11h3M43 12h4M50 12h3M93 16h1M18 31h1M29 57h1M119 57h1M104 102h1" />
<path stroke="#a0a0a0" d="M59 8h3M66 8h2M78 10h1M63 11h3M69 11h13M47 12h3M53 12h14M69 12h1M71 12h1M76 12h2M41 13h8M50 13h1M53 13h2M60 13h2M45 14h1" />
<path stroke="#a3a3a3" d="M63 8h2M53 9h1M57 9h2M64 9h6M72 9h2M50 10h4M56 10h4M105 26h1M25 39h1M55 40h1M58 43h1M58 50h1M119 70h1M22 101h1" />
<path stroke="#9f9f9f" d="M68 8h1M75 9h1M48 10h1M42 12h1M67 12h2M72 12h4M78 12h6M51 13h2M55 13h3M59 13h1M62 13h6M73 13h1M39 14h6M46 14h5M57 14h1M40 15h2M25 23h1M104 25h1M39 34h1M102 104h1" />
<path stroke="#b3b3b3" d="M71 8h1" />
<path stroke="#e1e1e1" d="M73 8h1M11 43h1M117 81h1M112 92h1M92 112h1" />
<path stroke="rgba(255,255,255,0.08235294117647059)" d="M33 9h1M16 104h1" />
<path stroke="rgba(255,255,255,0.592156862745098)" d="M34 9h1M9 34h1" />
<path stroke="rgba(255,255,255,0.9764705882352941)" d="M35 9h1" />
<path stroke="#f0f0f0" d="M49 9h1M78 9h1M33 16h1M42 53h1" />
<path stroke="#c4c4c4" d="M50 9h1M77 9h1M114 39h1M43 55h1" />
<path stroke="#a9a9a9" d="M51 9h1M80 10h1M100 21h1M34 68h1" />
<path stroke="#9e9e9e" d="M52 9h1M79 10h1M45 11h1M84 12h2M40 13h1M68 13h5M74 13h1M76 13h8M86 13h1M52 14h5M58 14h10M70 14h1M37 15h3M42 15h3M46 15h6M53 15h2M35 16h1M37 16h2M23 25h1M36 71h1" />
<path stroke="#a4a4a4" d="M54 9h3M59 9h5M111 34h1M88 67h1" />
<path stroke="#a2a2a2" d="M70 9h2M74 9h1M49 10h1M54 10h2M61 10h5M69 10h2M72 10h1M46 11h4M53 11h3M96 18h1M109 31h1M16 34h1M38 34h1M56 51h1M83 68h1M58 86h1" />
<path stroke="#a8a8a8" d="M76 9h1M31 18h1M26 22h1M117 47h1M11 83h1M109 96h1" />
<path stroke="rgba(255,255,255,0.9725490196078431)" d="M92 9h1M20 20h1M9 35h1M118 35h1" />
<path stroke="rgba(255,255,255,0.5843137254901961)" d="M93 9h1M9 93h1" />
<path stroke="rgba(255,255,255,0.00392156862745098)" d="M31 10h1M123 83h1M117 96h1M31 117h1" />
<path stroke="rgba(255,255,255,0.3686274509803922)" d="M32 10h1M26 14h1M32 117h1" />
<path stroke="rgba(255,255,255,0.9215686274509803)" d="M33 10h1M10 33h1M124 75h1M10 94h1" />
<path stroke="#d5d5d5" d="M46 10h1M25 35h1" />
<path stroke="#ababab" d="M47 10h1M45 59h1M46 61h1M111 93h1M105 101h1" />
<path stroke="#a2a3a2" d="M60 10h1M71 10h1" />
<path stroke="#d7d7d7" d="M81 10h1M35 15h1M15 35h1M37 71h1M66 85h1M61 86h1" />
<path stroke="rgba(255,255,255,0.43529411764705883)" d="M95 10h1M95 117h1" />
<path stroke="rgba(255,255,255,0.011764705882352941)" d="M96 10h1" />
<path stroke="rgba(255,255,255,0.18823529411764706)" d="M30 11h1M116 30h1" />
<path stroke="rgba(255,255,255,0.7764705882352941)" d="M31 11h1M11 96h1M47 123h1" />
<path stroke="#e8e8e8" d="M43 11h1M53 39h1M119 73h1" />
<path stroke="#b4b4b4" d="M44 11h1M32 34h1M35 34h1M47 36h1M8 55h1M47 63h1M80 70h1M47 117h1" />
<path stroke="#9d9d9d" d="M82 11h1M84 13h2M38 14h1M68 14h2M71 14h16M36 15h1M52 15h1M55 15h16M73 15h1M79 15h1M86 15h1M36 16h1M39 16h6M46 16h9M57 16h1M63 16h1M34 17h4M47 17h1M37 18h1M102 23h1M40 34h1M45 35h1M103 77h1M10 80h1M16 93h1" />
<path stroke="#aeaeae" d="M83 11h1M50 37h1M9 50h1M42 50h1M75 68h1M39 71h1M65 72h1M117 80h1M71 82h1M21 100h1M101 105h1" />
<path stroke="#e4e4e4" d="M84 11h1M119 54h1M46 117h1" />
<path stroke="rgba(255,255,255,0.8)" d="M96 11h1" />
<path stroke="rgba(255,255,255,0.0392156862745098)" d="M28 12h1M112 24h1M15 103h1M103 112h1" />
<path stroke="rgba(255,255,255,0.5764705882352941)" d="M29 12h1M12 29h1" />
<path stroke="rgba(255,255,255,0.9882352941176471)" d="M30 12h1M97 12h1M12 30h1M115 30h1M123 48h1M125 63h1M125 64h1M123 79h1M48 123h1M79 123h1" />
<path stroke="#c6c6c6" d="M41 12h1M12 86h1M28 107h1" />
<path stroke="#a0a1a0" d="M70 12h1M49 13h1" />
<path stroke="rgba(255,255,255,0.03529411764705882)" d="M99 12h1M24 15h1M115 28h1M115 99h1M112 103h1" />
<path stroke="rgba(255,255,255,0.1568627450980392)" d="M27 13h1M114 100h1" />
<path stroke="rgba(255,255,255,0.8196078431372549)" d="M28 13h1M125 59h1M59 125h1M68 125h1" />
<path stroke="#fdfdfd" d="M38 13h1M36 14h1M91 14h1M102 22h1M22 25h1M13 38h1M59 46h1M28 51h1M43 56h1M32 63h1M48 66h1M68 71h1M75 74h1M119 74h1M60 80h1M101 82h1M13 89h1M100 90h1" />
<path stroke="#c5c5c5" d="M39 13h1M10 46h1M37 113h1" />
<path stroke="#9f9e9f" d="M58 13h1M51 14h1" />
<path stroke="#9e9f9e" d="M75 13h1M45 15h1" />
<path stroke="#9c9c9c" d="M87 13h1M87 14h3M71 15h2M74 15h5M80 15h6M87 15h4M55 16h2M58 16h5M64 16h13M38 17h1M40 17h7M48 17h13M32 18h5M38 18h7M50 18h1M34 19h1M24 24h1M80 58h1M100 73h1M82 91h1M18 96h1" />
<path stroke="#bcbdbc" d="M88 13h1" />
<path stroke="#fcfcfc" d="M89 13h1M54 40h1M58 44h1M78 63h1M33 65h1M49 68h1M73 69h1M73 77h1M104 103h1" />
<path stroke="rgba(255,255,255,0.8392156862745098)" d="M99 13h1" />
<path stroke="rgba(255,255,255,0.17254901960784313)" d="M100 13h1M21 109h1" />
<path stroke="#bbbbbb" d="M37 14h1M57 42h1M42 52h1M76 73h1M89 97h1" />
<path stroke="#bcbcbc" d="M90 14h1M33 34h1M14 37h1M50 69h1M14 90h1" />
<path stroke="rgba(255,255,255,0.39215686274509803)" d="M101 14h1" />
<path stroke="rgba(255,255,255,0.6)" d="M25 15h1M112 102h1" />
<path stroke="#9a9a9a" d="M91 15h1M76 17h3M80 17h7M88 17h6M60 18h3M64 18h16M89 18h1M30 19h1M44 19h3M48 19h1M50 19h13M73 19h1M30 20h17M28 21h3M34 21h1M103 24h1M84 58h1M40 71h1M23 102h1" />
<path stroke="#d2d2d2" d="M92 15h1M27 48h1M72 69h1" />
<path stroke="rgba(255,255,255,0.6352941176470588)" d="M102 15h1M102 112h1" />
<path stroke="rgba(255,255,255,0.043137254901960784)" d="M103 15h1M15 24h1" />
<path stroke="rgba(255,255,255,0.09803921568627451)" d="M23 16h1M16 23h1M125 53h1M119 92h1M74 125h1" />
<path stroke="rgba(255,255,255,0.8156862745098039)" d="M24 16h1M16 24h1M13 28h1M125 68h1" />
<path stroke="#a7a7a7" d="M34 16h1M90 90h1M26 105h1M31 109h1" />
<path stroke="#9d9c9d" d="M45 16h1M28 34h1" />
<path stroke="#9b9b9b" d="M77 16h16M33 17h1M61 17h15M79 17h1M45 18h5M51 18h4M56 18h4M63 18h1M31 19h3M35 19h9M47 19h1M49 19h1M8 56h1M101 83h1M83 89h1" />
<path stroke="#eeeeee" d="M94 16h1M102 89h1M84 116h1" />
<path stroke="rgba(255,255,255,0.807843137254902)" d="M103 16h1M111 24h1M16 103h1M24 111h1" />
<path stroke="rgba(255,255,255,0.12941176470588237)" d="M22 17h1M122 42h1M5 85h1M22 110h1" />
<path stroke="rgba(255,255,255,0.8588235294117647)" d="M23 17h1" />
<path stroke="#bfbfbf" d="M32 17h1M107 28h1M17 32h1M113 37h1M33 66h1M56 119h1M71 119h1" />
<path stroke="#9c9d9c" d="M39 17h1" />
<path stroke="#999999" d="M87 17h1M80 18h6M87 18h2M90 18h6M63 19h1M65 19h8M74 19h9M86 19h1M29 20h1M47 20h20M70 20h1M31 21h3M35 21h16M27 22h7M41 32h4M39 33h9M41 34h10M46 35h1M30 60h1M25 104h1M58 119h1M69 119h1" />
<path stroke="#989898" d="M94 17h1M83 19h3M87 19h11M67 20h3M71 20h15M51 21h18M73 21h1M34 22h20M26 23h12M39 32h2M48 33h1M51 34h1M103 103h1M85 115h1" />
<path stroke="#c0c1c0" d="M95 17h1" />
<path stroke="rgba(255,255,255,0.8705882352941177)" d="M104 17h1M17 23h1" />
<path stroke="rgba(255,255,255,0.1450980392156863)" d="M105 17h1M13 100h1M110 105h1M105 110h1" />
<path stroke="rgba(255,255,255,0.17647058823529413)" d="M21 18h1M18 106h1" />
<path stroke="rgba(255,255,255,0.8980392156862745)" d="M22 18h1M60 125h1" />
<path stroke="#f8f8f8" d="M30 18h1M18 30h1M82 58h1M34 67h1M36 70h1M70 70h1M83 93h1" />
<path stroke="#9b9a9b" d="M55 18h1" />
<path stroke="#999899" d="M86 18h1M64 19h1M71 83h1" />
<path stroke="#f5f5f5" d="M97 18h1M41 35h1M59 48h1M87 82h1M65 85h1M94 90h1M99 91h1M111 94h1M91 96h1" />
<path stroke="rgba(255,255,255,0.9098039215686274)" d="M105 18h1M18 22h1" />
<path stroke="rgba(255,255,255,0.19607843137254902)" d="M106 18h1M109 21h1" />
<path stroke="rgba(255,255,255,0.25098039215686274)" d="M20 19h1M108 107h1M20 108h1" />
<path stroke="rgba(255,255,255,0.9450980392156862)" d="M21 19h1M108 21h1M2 61h1M2 66h1M108 106h1M88 120h1" />
<path stroke="#dfdfdf" d="M29 19h1M25 37h1M85 59h1M35 69h1" />
<path stroke="#dcdcdc" d="M98 19h1" />
<path stroke="rgba(255,255,255,0.9529411764705882)" d="M106 19h1M8 37h1M8 90h1M113 100h1M106 108h1M90 119h1M62 125h1M65 125h1" />
<path stroke="rgba(255,255,255,0.27450980392156865)" d="M107 19h1" />
<path stroke="rgba(255,255,255,0.25882352941176473)" d="M19 20h1" />
<path stroke="#bdbdbd" d="M28 20h1M99 20h1M20 28h1M48 65h1M49 67h1" />
<path stroke="#979797" d="M86 20h12M70 21h3M74 21h13M93 21h1M54 22h5M60 22h11M77 22h1M38 23h17M60 23h2M25 24h14M44 24h2M28 25h1M47 35h1M9 76h1M89 80h1M42 115h1" />
<path stroke="#969696" d="M98 20h1M87 21h6M94 21h6M59 22h1M71 22h6M78 22h6M90 22h1M55 23h3M59 23h1M62 23h6M73 23h2M39 24h5M46 24h6M57 24h2M24 25h4M29 25h7M41 25h2M25 26h1M19 30h1M45 32h1M49 33h1M89 90h1" />
<path stroke="rgba(255,255,255,0.9686274509803922)" d="M107 20h1M2 62h1M2 65h1M9 92h1M118 92h1M20 107h1M107 107h1M35 118h1" />
<path stroke="rgba(255,255,255,0.2549019607843137)" d="M108 20h1M19 107h1" />
<path stroke="rgba(255,255,255,0.1803921568627451)" d="M18 21h1M11 97h1M85 122h1" />
<path stroke="rgba(255,255,255,0.9372549019607843)" d="M19 21h1M7 39h1M7 88h1M19 106h1" />
<path stroke="#b1b1b1" d="M27 21h1M36 34h1" />
<path stroke="#989998" d="M69 21h1" />
<path stroke="rgba(255,255,255,0.13725490196078433)" d="M17 22h1" />
<path stroke="#959595" d="M84 22h6M91 22h1M93 22h8M68 23h5M75 23h20M52 24h5M59 24h20M36 25h5M43 25h20M23 26h2M26 26h21M22 27h1M24 27h6M38 32h1M115 42h1" />
<path stroke="#959495" d="M92 22h1M23 27h1" />
<path stroke="#a5a5a5" d="M101 22h1M59 49h1M8 71h1M61 76h1M96 109h1M93 111h1" />
<path stroke="rgba(255,255,255,0.9176470588235294)" d="M109 22h1" />
<path stroke="rgba(255,255,255,0.14901960784313725)" d="M110 22h1M13 27h1M27 114h1" />
<path stroke="#fafbfa" d="M24 23h1M25 36h1" />
<path stroke="#969796" d="M58 23h1" />
<path stroke="#949494" d="M95 23h7M79 24h20M63 25h20M87 25h3M47 26h20M70 26h3M30 27h10M41 27h10M54 27h3M21 28h3M25 28h5M31 28h3M38 28h3M22 29h3M46 32h1M38 33h1M15 36h1M11 44h1M119 58h1M71 69h1M119 69h1" />
<path stroke="#f7f7f7" d="M103 23h1M109 30h1M46 62h1M90 80h1M49 118h1M78 118h1" />
<path stroke="rgba(255,255,255,0.8666666666666667)" d="M110 23h1M122 83h1M104 110h1" />
<path stroke="#fafafa" d="M23 24h1M104 24h1M8 53h1M29 55h1M83 88h1M23 103h1M103 104h1" />
<path stroke="#939293" d="M99 24h1M29 29h1" />
<path stroke="#939393" d="M100 24h3M83 25h4M90 25h6M100 25h3M67 26h3M73 26h7M83 26h4M51 27h3M57 27h7M67 27h4M30 28h1M34 28h4M41 28h7M51 28h4M20 29h2M25 29h4M30 29h2M35 29h4M20 30h2M47 32h1M52 34h1M115 85h1M93 96h1M90 97h1" />
<path stroke="rgba(255,255,255,0.6274509803921569)" d="M15 25h1" />
<path stroke="#929292" d="M96 25h4M103 25h1M80 26h3M87 26h7M96 26h5M64 27h3M71 27h7M80 27h5M48 28h3M55 28h7M64 28h3M32 29h3M39 29h6M48 29h4M65 29h1M22 30h7M32 30h4M108 30h1M19 31h1M112 36h1M26 45h1M28 54h1M68 85h1M63 86h1M95 95h1" />
<path stroke="#fdfcfd" d="M105 25h1" />
<path stroke="rgba(255,255,255,0.611764705882353)" d="M112 25h1" />
<path stroke="rgba(255,255,255,0.3764705882352941)" d="M14 26h1" />
<path stroke="#919191" d="M94 26h2M101 26h4M78 27h2M85 27h14M100 27h5M62 28h2M68 28h13M82 28h1M84 28h5M90 28h6M45 29h3M52 29h3M56 29h9M66 29h7M74 29h5M29 30h3M36 30h14M51 30h6M58 30h5M20 31h14M35 31h5M41 31h1M43 31h4M19 32h5M25 32h6M17 33h1M50 33h1M14 38h1M78 60h1M8 70h1M71 84h1M59 119h1M68 119h1" />
<path stroke="rgba(255,255,255,0.36470588235294116)" d="M113 26h1" />
<path stroke="#adadad" d="M21 27h1M46 51h1" />
<path stroke="#949594" d="M40 27h1M24 28h1" />
<path stroke="#909090" d="M99 27h1M105 27h1M83 28h1M89 28h1M96 28h10M73 29h1M79 29h3M83 29h7M91 29h2M50 30h1M57 30h1M63 30h5M69 30h1M71 30h6M34 31h1M40 31h1M42 31h1M47 31h7M55 31h6M18 32h1M24 32h1M31 32h7M48 32h1M51 32h1M18 33h11M35 33h1M19 34h1M13 40h1M83 70h1M59 81h1M86 82h1M24 103h1" />
<path stroke="#afafaf" d="M106 27h1M31 34h1M83 94h1" />
<path stroke="rgba(255,255,255,0.1607843137254902)" d="M114 27h1" />
<path stroke="rgba(255,255,255,0.03137254901960784)" d="M12 28h1M12 99h1M24 112h1M28 115h1M99 115h1" />
<path stroke="#929392" d="M67 28h1" />
<path stroke="#919091" d="M81 28h1M55 29h1" />
<path stroke="#8f8f8f" d="M106 28h1M93 29h12M106 29h2M70 30h1M77 30h14M92 30h3M97 30h5M54 31h1M61 31h18M80 31h6M49 32h2M52 32h4M57 32h6M64 32h6M29 33h6M36 33h2M51 33h2M17 34h2M20 34h8M16 35h5M24 35h1M114 40h1M117 48h1M42 51h1M78 69h1M100 91h1M48 117h1M79 117h1" />
<path stroke="#909190" d="M82 29h1M90 29h1M68 30h1" />
<path stroke="#8e8e8e" d="M105 29h1M95 30h2M102 30h6M79 31h1M86 31h13M100 31h3M106 31h3M63 32h1M70 32h13M84 32h3M91 32h3M53 33h13M68 33h3M74 33h4M110 33h1M53 34h2M58 34h4M21 35h3M48 35h1M16 36h2M19 36h3M113 38h1M27 50h1M119 59h1M119 68h1M105 80h1M84 84h1" />
<path stroke="#dedfde" d="M108 29h1" />
<path stroke="rgba(255,255,255,0.5607843137254902)" d="M115 29h1M8 36h1" />
<path stroke="rgba(255,255,255,0.2)" d="M11 30h1M123 45h1M123 82h1M45 123h1M82 123h1" />
<path stroke="#8f8e8f" d="M91 30h1M56 32h1" />
<path stroke="rgba(255,255,255,0.00784313725490196)" d="M10 31h1M117 31h1M10 96h1M96 117h1" />
<path stroke="rgba(255,255,255,0.7803921568627451)" d="M11 31h1" />
<path stroke="#8d8d8d" d="M99 31h1M103 31h3M83 32h1M87 32h3M94 32h7M103 32h5M66 33h2M71 33h1M73 33h1M78 33h7M88 33h4M94 33h5M55 34h3M62 34h7M71 34h5M77 34h6M59 35h1M61 35h1M63 35h4M18 36h1M15 37h5M15 38h3M116 45h1M77 66h1M88 68h1M60 78h1M91 112h1M45 116h1" />
<path stroke="rgba(255,255,255,0.403921568627451)" d="M10 32h1M125 55h1M121 87h1M87 121h1M55 125h1M72 125h1" />
<path stroke="#8e8f8e" d="M90 32h1" />
<path stroke="#8c8c8c" d="M101 32h2M108 32h2M85 33h1M92 33h2M99 33h7M107 33h3M69 34h2M76 34h1M83 34h14M103 34h1M110 34h1M60 35h1M67 35h14M87 35h1M94 35h1M64 36h1M71 36h1M78 36h1M10 47h1M118 52h1M92 78h1M117 79h1M83 86h1M112 91h1M52 118h1M75 118h1" />
<path stroke="#c2c2c2" d="M110 32h1M38 71h1M94 77h1" />
<path stroke="rgba(255,255,255,0.3843137254901961)" d="M117 32h1" />
<path stroke="#f1f1f1" d="M16 33h1M49 37h1M93 78h1M43 116h1" />
<path stroke="#8d8c8d" d="M72 33h1M87 33h1M62 35h1" />
<path stroke="#8c8d8c" d="M86 33h1M14 39h1" />
<path stroke="#8b8b8b" d="M106 33h1M97 34h6M104 34h6M58 35h1M81 35h6M88 35h6M95 35h14M65 36h6M72 36h5M79 36h15M97 36h4M68 37h1M70 37h7M81 37h4M15 39h1M95 76h1M36 112h1M87 114h1M60 119h1M67 119h1" />
<path stroke="#f2f2f2" d="M111 33h1M27 47h1M118 49h1M78 68h1M85 89h1" />
<path stroke="rgba(255,255,255,0.9254901960784314)" d="M117 33h1M3 75h1M117 94h1M52 124h1M75 124h1" />
<path stroke="#aaaaaa" d="M30 34h1M52 38h1M101 74h1M57 119h1M70 119h1" />
<path stroke="#b7b7b7" d="M34 34h1M44 57h1M119 71h1M116 83h1M91 90h1M27 106h1M100 106h1" />
<path stroke="#acacac" d="M37 34h1" />
<path stroke="rgba(255,255,255,0.5725490196078431)" d="M118 34h1M34 118h1" />
<path stroke="#efefef" d="M26 35h1M103 78h1M98 92h1M84 95h1" />
<path stroke="#dddddd" d="M42 35h1M87 66h1" />
<path stroke="#b0b0b0" d="M44 35h1M26 44h1M50 70h1M51 118h1M76 118h1" />
<path stroke="#888888" d="M49 35h1M98 38h2M101 38h3M112 38h1M72 39h1M81 39h7M96 39h15M113 39h1M80 40h15M97 40h5M76 41h3M81 41h5M119 67h1M74 68h1M12 85h1M82 92h1M99 92h1M97 108h1M89 113h1M40 114h1M82 116h1" />
<path stroke="#838383" d="M50 35h1M57 35h1M113 45h1M97 46h1M105 46h11M87 47h1M89 47h8M98 47h16M86 48h11M43 54h1M102 75h1M58 85h1" />
<path stroke="#7e7e7e" d="M51 35h1M69 38h1M85 48h1M91 54h1M117 54h1M101 55h1M109 55h6M117 55h2M93 56h6M101 56h8M111 56h3M115 56h2M118 56h1M95 57h6M102 57h2M108 57h2M11 82h1M14 89h1M94 110h1" />
<path stroke="#7d7d7d" d="M52 35h1M54 35h1M54 39h1M109 56h2M117 56h1M94 57h1M101 57h1M104 57h4M110 57h9M95 58h19M118 58h1M95 59h3M102 59h3M108 59h2M115 59h3M99 60h3M119 63h1M77 67h1M8 68h1M35 70h1M9 75h1M104 78h1M110 94h1" />
<path stroke="#808080" d="M53 35h1M109 50h2M117 50h1M93 51h2M109 51h5M117 51h1M51 52h1M92 52h6M100 52h17M91 53h11M108 53h2M114 53h2M118 53h1M92 54h1M94 54h1M98 54h1M119 65h1M88 90h1" />
<path stroke="#7a7a7a" d="M55 35h1M66 37h1M86 49h1M87 50h1M50 52h1M89 52h1M8 59h1M95 60h1M105 63h4M114 63h5M98 64h14M113 64h2M32 65h1M97 65h2M102 65h6M115 65h1M88 66h1M99 66h1M106 66h3M99 73h1M97 94h1M33 110h1" />
<path stroke="#7b7b7b" d="M56 35h1M14 40h1M52 52h1M111 60h1M112 61h3M96 62h3M104 62h8M113 62h6M97 63h8M109 63h5M97 64h1M62 119h1M65 119h1" />
<path stroke="#8b8a8b" d="M109 35h1M77 36h1M69 37h1" />
<path stroke="#8a8a8a" d="M110 35h2M94 36h3M101 36h7M110 36h2M67 37h1M77 37h4M85 37h7M94 37h5M70 38h6M78 38h5M9 51h1M8 57h1M119 60h1M87 69h1M118 75h1" />
<path stroke="#d6d6d6" d="M112 35h1M55 51h1M30 59h1M47 70h1M86 115h1M55 119h1M72 119h1" />
<path stroke="rgba(255,255,255,0.10196078431372549)" d="M119 35h1M92 119h1M53 125h1" />
<path stroke="#858585" d="M22 36h1M63 36h1M79 43h1M105 43h11M88 44h24M83 45h13M119 61h1M102 88h1" />
<path stroke="#6f6f6f" d="M23 36h1M8 63h1M9 64h2M10 65h1M12 65h1M9 66h1M97 66h1M9 67h1M12 67h1M9 68h3M9 69h4M10 70h3M9 71h4M42 71h1M10 72h1M10 73h4M63 73h1M11 74h4M15 75h1M12 76h4M11 77h5M11 78h3M15 78h1M11 79h2M11 80h4M13 81h1M12 82h1M14 82h1M16 82h2M12 83h1M14 83h4M13 84h5M15 85h4M69 85h1M14 86h4M64 86h1M14 87h5M20 87h1M15 88h2M18 88h2M15 89h1M17 89h4M15 90h5M21 90h1M16 91h5M17 92h5M17 93h4M19 94h2M22 94h3M18 95h1M20 95h1M23 95h2M19 96h2M20 97h1M23 97h1M21 98h2M87 98h1M22 99h2M26 100h1M23 101h4M24 102h2M76 102h1M25 103h4M30 103h1M26 104h4M27 105h5M68 105h1M28 106h1M34 106h1M65 106h1M30 107h5M31 108h3M32 109h1M38 109h1M57 109h1M34 110h1M54 110h1M36 111h2M51 111h1M42 112h1M48 112h1M39 113h3M45 113h1M41 114h1" />
<path stroke="#616161" d="M24 36h1M20 38h1M21 39h2M22 40h1M23 41h2M24 42h2M76 42h1M24 43h2M57 51h1M49 52h1M45 58h1M98 69h1M93 77h1" />
<path stroke="#e7e7e7" d="M46 36h1M108 98h1M98 108h1" />
<path stroke="#7f7f7f" d="M48 36h1M18 38h1M80 44h1M102 53h6M110 53h4M116 53h2M93 54h1M95 54h3M99 54h18M118 54h1M92 55h8M102 55h7M115 55h2M99 56h2M114 56h1M8 58h1M77 65h1M10 79h1" />
<path stroke="#555555" d="M49 36h1M80 45h1M54 52h1M43 53h1M79 58h1M85 58h1M78 59h1M77 63h1M84 67h1M51 70h1M41 82h1M83 85h1M42 88h1M86 90h1M68 95h2M61 96h1M79 97h1M53 98h1M45 101h1" />
<path stroke="#525252" d="M50 36h2M53 36h6M52 37h11M54 38h13M55 39h11M67 39h3M57 40h15M58 41h16M58 42h18M59 43h4M64 43h13M60 44h19M60 45h18M79 45h1M61 46h9M71 46h10M61 47h22M61 48h23M60 49h1M63 49h7M71 49h14M60 50h7M68 50h18M43 51h1M58 51h8M67 51h13M81 51h1M83 51h4M43 52h6M55 52h33M44 53h34M79 53h10M44 54h2M47 54h11M59 54h2M62 54h10M73 54h16M44 55h47M45 56h47M45 57h6M52 57h15M68 57h10M79 57h13M46 58h8M55 58h4M60 58h16M77 58h2M86 58h7M46 59h4M51 59h1M53 59h7M61 59h17M87 59h7M47 60h31M88 60h2M91 60h3M47 61h31M88 61h7M48 62h30M89 62h2M92 62h3M48 63h29M89 63h6M49 64h28M89 64h7M49 65h12M62 65h15M89 65h7M50 66h27M89 66h1M91 66h6M50 67h27M89 67h8M51 68h22M84 68h1M89 68h5M95 68h2M51 69h19M84 69h2M88 69h10M52 70h16M78 70h1M84 70h9M94 70h4M44 71h22M78 71h3M84 71h4M89 71h10M38 72h26M77 72h6M84 72h15M38 73h5M44 73h12M57 73h6M77 73h16M94 73h4M39 74h6M46 74h16M77 74h6M84 74h13M39 75h7M47 75h8M56 75h5M77 75h19M40 76h21M76 76h19M40 77h20M75 77h18M41 78h19M74 78h3M78 78h14M41 79h19M74 79h16M41 80h9M51 80h8M73 80h15M41 81h18M72 81h15M42 82h15M58 82h1M72 82h14M42 83h17M72 83h10M83 83h2M42 84h16M72 84h1M74 84h10M42 85h16M71 85h1M76 85h7M42 86h2M45 86h13M66 86h6M77 86h3M81 86h2M43 87h15M60 87h8M69 87h4M79 87h4M43 88h14M58 88h5M64 88h11M43 89h5M49 89h5M55 89h20M76 89h1M43 90h1M45 90h13M59 90h12M72 90h7M43 91h18M62 91h17M80 91h2M43 92h14M58 92h15M74 92h8M43 93h39M43 94h40M43 95h2M46 95h20M73 95h10M43 96h18M77 96h7M43 97h13M81 97h4M43 98h10M43 99h7M43 100h4M43 101h2" />
<path stroke="#525352" d="M52 36h1M63 37h1M66 39h1M63 43h1M78 45h1M70 46h1M61 49h1M70 49h1M66 51h1M82 51h1M78 53h1M46 54h1M58 54h1M61 54h1M72 54h1M89 54h1M67 57h1M78 57h1M54 58h1M59 58h1M52 59h1M90 60h1M90 66h1M94 68h1M88 71h1M83 72h1M43 73h1M93 73h1M45 74h1M83 74h1M46 75h1M76 75h1M77 78h1M50 80h1M57 82h1M82 83h1M44 86h1M80 86h1M57 88h1M63 88h1M48 89h1M44 90h1M58 90h1M71 90h1M79 90h1M61 91h1M66 95h1" />
<path stroke="#585858" d="M59 36h1M53 38h1M60 48h1M44 51h1M38 74h1M60 77h1M73 79h1M57 97h1" />
<path stroke="#5e5e5e" d="M60 36h1M97 67h1M106 82h1M42 93h1M58 97h1M77 97h1M82 98h1M84 98h1M51 99h1" />
<path stroke="#696969" d="M61 36h1M17 39h1M15 40h1M12 43h1M11 46h2M11 47h3M11 48h3M14 49h2M14 50h2M15 51h3M16 52h3M15 53h1M17 53h2M16 54h4M16 55h2M19 55h3M21 56h1M20 57h1M22 57h1M20 58h1M22 58h1M21 59h1M86 59h1M22 60h2M23 61h2M24 62h2M24 63h4M24 64h4M48 64h1M96 64h1M27 65h1M26 66h2M29 66h2M28 67h2M31 67h1M28 68h4M28 69h4M29 70h3M29 71h4M30 72h2M32 73h1M35 74h1M33 75h2M33 76h2M36 76h1M33 77h4M35 78h2M38 78h1M35 79h2M39 79h1M90 79h1M37 80h1M37 81h3M37 82h3M37 83h4M37 84h3M38 85h1M41 87h1M41 88h1M56 98h1M53 99h2M53 100h4M53 101h4M60 101h1M57 102h1M57 103h4M72 103h1M57 104h5M63 104h2M69 104h1M59 105h4M61 106h3" />
<path stroke="#777777" d="M62 36h1M75 41h1M12 42h1M29 58h1M8 60h1M96 63h1M33 67h1M114 69h2M116 70h3M100 71h3M109 71h2M112 71h4M118 71h1M102 72h9M113 72h6M102 73h2M109 73h10M102 74h6M117 78h1M83 90h1" />
<path stroke="#898989" d="M108 36h2M92 37h2M99 37h14M76 38h2M83 38h15M104 38h2M107 38h5M73 39h8M88 39h8M75 40h5M114 87h1M108 97h1" />
<path stroke="rgba(255,255,255,0.5450980392156862)" d="M119 36h1" />
<path stroke="#828282" d="M20 37h1M114 47h3M97 48h20M87 49h4M92 49h17M114 49h3M88 50h5M98 50h3M72 80h1M101 86h1M19 97h1M38 113h1" />
<path stroke="#6d6d6d" d="M21 37h1M27 51h1M9 53h1M9 54h1M9 55h2M9 56h3M10 57h3M9 58h1M12 58h1M12 59h1M12 60h1M12 61h1M12 62h1M13 63h4M12 64h3M13 65h2M13 66h1M15 66h3M15 67h1M13 68h1M77 69h1M17 70h1M68 70h1M16 71h1M18 71h3M17 72h4M17 73h5M17 74h3M22 74h1M17 75h5M18 76h5M21 77h2M20 78h4M20 79h6M20 80h5M21 81h3M20 82h5M24 83h4M19 84h2M22 84h5M24 85h3M23 86h1M26 86h2M23 87h2M26 87h2M58 87h1M25 88h3M29 88h1M31 88h1M25 89h7M27 90h5M25 91h1M28 91h2M31 91h1M26 92h5M24 93h1M30 93h1M33 93h3M25 94h1M29 94h1M32 94h4M30 95h5M28 96h1M32 96h3M29 97h5M35 97h2M31 98h3M32 99h6M34 100h2M37 100h2M33 101h1M36 101h2M34 102h9M37 103h4M37 104h5M36 105h8M39 106h2M41 107h5M40 108h3M44 108h2M40 109h1M43 109h2M45 110h3M53 110h1M44 111h7M44 113h1" />
<path stroke="#606160" d="M22 37h1" />
<path stroke="#5f5f5f" d="M23 37h2M23 38h2M79 44h1M83 47h1M99 71h1M97 74h1M39 77h1M102 82h1M41 84h1M44 102h1" />
<path stroke="#646464" d="M51 37h1M16 40h2M18 41h1M18 42h1M19 43h2M19 44h3M21 45h1M22 46h1M23 47h1M25 47h2M23 48h2M24 49h3M24 50h3M26 51h1M26 52h1M58 84h1M101 85h1M42 97h1M70 97h3M74 97h2M55 98h1M72 98h3M73 99h2M76 100h1M78 100h2M76 101h1" />
<path stroke="#5a5a5a" d="M64 37h1M72 40h1M84 48h1M43 71h1M82 88h1M62 96h1M48 100h1" />
<path stroke="#686868" d="M65 37h1M13 41h1M12 44h3M12 45h4M13 46h3M14 47h3M14 48h3M16 49h2M16 50h2M18 51h1M19 52h2M19 53h2M20 54h1M18 55h1M22 55h1M19 56h2M22 56h3M21 57h1M23 57h3M21 58h1M23 58h1M25 58h1M22 59h2M25 59h2M24 60h3M25 61h3M26 62h2M28 63h1M28 64h2M28 65h3M28 66h1M31 66h1M30 67h1M32 68h1M32 69h2M32 70h3M33 71h3M32 72h4M33 73h3M33 74h2M36 74h2M35 75h1M37 76h2M37 77h2M37 78h1M37 79h2M38 80h2M40 82h1M105 88h1M57 98h4M42 99h1M55 99h6M83 99h1M57 100h4M63 100h1M57 101h3M61 101h4M59 102h6M61 103h4M62 104h1M66 104h3M63 105h4" />
<path stroke="rgba(255,255,255,0.5176470588235295)" d="M7 38h1M124 50h1M50 124h1" />
<path stroke="#6b6b6b" d="M19 38h1M25 41h1M10 49h1M10 50h1M53 52h1M12 53h2M12 54h4M12 55h3M12 56h4M13 57h3M18 57h1M16 58h1M16 59h3M94 59h1M17 60h1M17 61h3M30 61h1M95 61h1M17 62h4M18 63h2M17 64h6M17 65h1M19 65h5M21 66h3M49 66h1M21 67h4M21 68h4M23 69h3M23 70h2M21 71h2M24 71h1M22 72h2M25 72h2M28 72h1M23 73h4M25 74h2M28 74h1M26 75h4M96 75h1M26 76h3M28 77h1M32 77h1M26 78h1M28 78h5M27 79h1M29 79h2M28 80h5M28 81h5M31 82h1M33 82h1M29 83h4M34 83h2M32 84h5M33 85h4M33 86h4M32 87h1M34 87h1M36 87h1M34 88h3M35 89h3M39 89h1M34 90h7M37 91h2M40 91h1M37 92h4M39 93h2M40 94h1M40 95h2M40 96h2M40 97h2M39 98h2M42 101h1M48 101h1M46 102h1M49 102h3M43 103h1M47 103h5M47 104h6M48 105h4M53 105h3M46 106h1M51 106h2M55 106h1M51 107h3M55 107h2M61 107h1M51 108h4M57 108h2M50 109h4M55 109h1M50 110h1" />
<path stroke="#606060" d="M21 38h2M23 39h2M23 40h2M85 68h1M40 80h1M101 84h1M84 90h1M42 94h1M64 96h1M81 98h1M46 101h1" />
<path stroke="#c0c0c0" d="M25 38h1M86 66h1M49 70h1M104 79h1" />
<path stroke="#f9f9f9" d="M51 38h1M44 50h1M57 50h1M54 51h1M44 58h1M86 68h1M44 70h1M18 97h1M87 97h1M109 97h1M30 109h1M97 109h1" />
<path stroke="#575757" d="M67 38h1M85 49h1M39 76h1M42 89h1M75 96h1" />
<path stroke="#6a6a6a" d="M68 38h1M11 49h3M11 50h3M12 51h3M12 52h4M14 53h1M16 53h1M15 55h1M16 56h3M44 56h1M16 57h2M19 57h1M17 58h3M19 59h2M18 60h4M20 61h3M21 62h3M20 63h4M23 64h1M77 64h1M24 65h3M24 66h2M25 67h3M25 68h3M50 68h1M26 69h2M34 69h1M25 70h4M26 71h3M27 72h1M29 72h1M28 73h4M29 74h4M30 75h3M30 76h3M35 76h1M29 77h3M33 78h2M31 79h3M33 80h4M33 81h4M103 81h1M35 82h2M33 83h1M36 83h1M40 84h1M37 85h1M39 85h2M37 86h4M37 87h4M37 88h4M38 89h1M40 89h2M103 89h1M41 90h1M41 91h1M41 92h1M41 93h1M41 94h1M42 100h1M50 100h3M47 101h1M49 101h4M45 102h1M48 102h1M52 102h5M75 102h1M53 103h4M53 104h4M52 105h1M56 105h3M53 106h2M56 106h5M57 107h4M55 108h2" />
<path stroke="#888988" d="M100 38h1" />
<path stroke="#898889" d="M106 38h1" />
<path stroke="#c1c1c1" d="M13 39h1M84 66h1M67 71h1M17 95h1M20 99h1M44 116h1" />
<path stroke="#7d7c7d" d="M16 39h1" />
<path stroke="#626262" d="M18 39h3M20 40h2M21 41h2M21 42h3M23 43h1M24 44h2M25 45h1M91 55h1M47 62h1M37 73h1M59 80h1M82 90h1M42 95h1M65 96h1M73 96h1M80 98h1M81 99h1" />
<path stroke="#5d5d5d" d="M70 39h1M60 46h1M46 60h1M95 62h1M70 69h1M42 92h1M82 93h1M63 96h1M74 96h1M83 98h1" />
<path stroke="#757575" d="M71 39h1M26 46h1M86 69h1M109 76h7M117 76h1M74 77h1M106 77h4M115 77h3M105 78h2M109 78h8M105 79h5M111 79h6M107 80h8M107 81h2M115 84h1M20 98h1M29 107h1M53 118h1M74 118h1M63 119h2" />
<path stroke="#878787" d="M111 39h2M74 40h1M95 40h2M102 40h7M110 40h4M79 41h2M86 41h7M94 41h7M107 41h1M114 41h1M78 42h7M91 42h1M97 42h3M81 43h2M116 82h1" />
<path stroke="rgba(255,255,255,0.050980392156862744)" d="M121 39h1M121 88h1M39 121h1M88 121h1" />
<path stroke="#636363" d="M18 40h2M19 41h2M20 42h1M21 43h1M22 44h2M22 45h3M23 46h3M24 47h1M26 48h1M87 60h1M38 75h1M41 85h1M42 96h1M66 96h1M72 96h1M73 97h1M76 97h1M75 98h5M75 99h6M82 99h1M49 100h1M77 100h1" />
<path stroke="#868786" d="M25 40h1M93 41h1M112 41h1M111 42h1" />
<path stroke="#535353" d="M56 40h1M81 46h1M62 49h1M59 50h1M67 50h1M80 51h1M51 57h1M76 58h1M50 59h1M60 59h1M91 62h1M95 63h1M61 65h1M97 68h1M93 70h1M98 70h1M81 71h1M99 72h1M56 73h1M98 73h1M55 75h1M40 78h1M88 80h1M42 87h1M68 87h1M54 89h1M75 89h1M79 91h1M57 92h1M73 92h1M45 95h1M67 95h1M72 95h1M76 96h1M56 97h1M80 97h1M47 100h1" />
<path stroke="#747474" d="M73 40h1M81 45h1M9 52h1M82 71h1M106 80h1M115 80h2M109 81h8M107 82h9M110 83h6M107 84h3M111 84h4M107 85h3M114 86h1M110 87h4" />
<path stroke="#868686" d="M109 40h1M101 41h6M108 41h4M113 41h1M85 42h6M92 42h5M100 42h11M112 42h3M80 43h1M83 43h22M81 44h7M83 69h1M113 89h1M84 96h1M30 108h1" />
<path stroke="#fefffe" d="M115 40h1M83 59h1M86 83h1M39 119h1" />
<path stroke="rgba(255,255,255,0.38823529411764707)" d="M121 40h1M40 121h1" />
<path stroke="#666666" d="M14 41h1M14 42h2M15 43h2M18 43h1M16 45h3M17 46h2M19 47h1M20 48h2M21 49h1M23 49h1M21 50h3M21 51h1M23 51h1M22 52h3M23 53h1M26 54h2M26 55h2M26 56h3M26 57h3M28 58h1M41 86h1M87 90h1M62 97h1M65 97h3M66 98h2M52 99h1M65 99h3M66 100h1M68 100h4M69 101h3M69 102h3M74 102h1M70 103h1" />
<path stroke="#656565" d="M15 41h3M16 42h2M17 43h1M17 44h2M19 45h2M19 46h3M20 47h2M22 48h1M22 49h1M24 51h2M25 52h1M27 52h1M25 53h3M25 54h1M77 70h1M40 81h1M67 96h4M68 97h2M68 98h4M85 98h1M68 99h5M72 100h1M74 100h2M72 101h4M72 102h2" />
<path stroke="#b9b9b9" d="M56 41h1M31 62h1" />
<path stroke="#545454" d="M57 41h1M77 43h1M92 57h1M70 85h1M65 86h1M43 102h1" />
<path stroke="#5b5b5b" d="M74 41h1M93 58h1M85 66h1M41 83h1" />
<path stroke="#c9c9c9" d="M115 41h1" />
<path stroke="rgba(255,255,255,0.12549019607843137)" d="M5 42h1" />
<path stroke="#676767" d="M13 42h1M13 43h2M15 44h1M16 46h1M82 46h1M17 47h2M60 47h1M17 48h3M18 49h3M18 50h3M19 51h2M22 51h1M21 52h1M21 53h2M24 53h1M22 54h3M23 55h3M25 56h1M26 58h2M24 59h1M27 59h3M27 60h3M28 61h2M28 62h3M29 63h2M31 64h1M31 65h1M32 66h1M32 67h1M33 68h1M36 72h1M36 73h1M36 75h2M39 78h1M87 81h1M59 87h1M60 97h2M63 97h2M42 98h1M61 98h4M61 99h4M61 100h2M64 100h2M67 100h1M80 100h1M65 101h4M77 101h1M66 102h3M65 103h5M71 103h1" />
<path stroke="#636263" d="M19 42h1M71 96h1M59 97h1" />
<path stroke="#ececec" d="M26 42h1M86 60h1M84 85h1" />
<path stroke="#7f7e7f" d="M77 42h1" />
<path stroke="rgba(255,255,255,0.4980392156862745)" d="M5 43h1" />
<path stroke="#626362" d="M22 43h1" />
<path stroke="#cecece" d="M26 43h1M119 72h1M118 77h1M83 87h1M99 107h1" />
<path stroke="#6e6e6e" d="M78 43h1M9 57h1M10 58h2M9 59h3M9 60h3M9 61h3M9 62h3M9 63h4M11 64h1M9 65h1M11 65h1M10 66h3M10 67h2M13 67h2M12 68h1M14 68h3M13 69h4M13 70h4M13 71h3M12 72h5M14 73h3M15 74h2M12 75h3M16 75h1M16 76h2M16 77h5M14 78h1M16 78h4M16 79h4M15 80h5M15 81h6M15 82h1M18 82h2M18 83h6M18 84h1M21 84h1M19 85h5M18 86h2M21 86h1M24 86h2M19 87h1M22 87h1M25 87h1M17 88h1M20 88h5M21 89h4M20 90h1M22 90h5M21 91h4M26 91h2M22 92h4M21 93h3M25 93h3M29 93h1M21 94h1M26 94h3M30 94h2M19 95h1M21 95h2M25 95h5M21 96h2M24 96h4M29 96h3M24 97h5M34 97h1M23 98h8M24 99h8M84 99h1M22 100h2M25 100h1M27 100h6M27 101h6M34 101h2M26 102h8M29 103h1M31 103h5M73 103h1M30 104h7M70 104h1M32 105h4M29 106h5M36 106h3M35 107h6M62 107h1M34 108h6M59 108h1M33 109h2M36 109h2M41 109h2M56 109h1M35 110h10M38 111h3M42 111h2M37 112h5M43 112h5M42 113h2" />
<path stroke="#eaeaea" d="M116 43h1" />
<path stroke="rgba(255,255,255,0.47843137254901963)" d="M122 43h1" />
<path stroke="#666766" d="M16 44h1" />
<path stroke="#787878" d="M59 44h1M108 67h1M103 68h3M112 68h7M99 69h4M105 69h9M116 69h3M100 70h1M102 70h4M107 70h9M103 71h6M116 71h2M101 72h1M101 73h1M118 74h1M102 90h1M17 94h1M107 98h1M98 107h1" />
<path stroke="#858485" d="M112 44h1M82 45h1" />
<path stroke="#848484" d="M113 44h3M96 45h17M114 45h2M83 46h14M98 46h7M85 47h2M88 47h1M119 66h1M8 69h1M41 71h1M98 93h1M61 119h1M66 119h1" />
<path stroke="#717171" d="M11 45h1M8 62h1M8 64h1M16 92h1M92 97h6M104 97h4M88 98h7M99 98h3M85 99h1M96 99h2M82 100h1M90 100h5M101 100h5M79 101h1M85 101h7M97 101h5M103 101h2M80 102h9M92 102h3M74 103h1M76 103h3M88 103h11M100 103h3M72 104h11M84 104h11M96 104h6M69 105h30M100 105h1M66 106h23M90 106h9M63 107h10M74 107h24M61 108h1M63 108h29M93 108h4M58 109h13M72 109h11M84 109h10M95 109h1M55 110h18M74 110h20M53 111h1M55 111h9M65 111h8M74 111h7M82 111h10M50 112h41M47 113h42M44 114h12M57 114h13M71 114h9M82 114h5M44 115h40M46 116h2M49 116h23M74 116h8M50 117h26M77 117h1M54 118h20" />
<path stroke="#d8d8d8" d="M59 45h1M47 51h1M81 58h1" />
<path stroke="#838283" d="M116 46h1M97 47h1" />
<path stroke="#dbdbdb" d="M117 46h1M83 58h1M8 73h1M88 97h1" />
<path stroke="rgba(255,255,255,0.49411764705882355)" d="M123 46h1M5 84h1" />
<path stroke="#656465" d="M22 47h1M65 98h1M73 100h1" />
<path stroke="#818181" d="M84 47h1M109 49h5M117 49h1M93 50h5M101 50h8M111 50h4M116 50h1M45 51h1M89 51h4M95 51h14M114 51h3M90 52h2M98 52h2M119 62h1M13 87h1" />
<path stroke="rgba(255,255,255,0.7725490196078432)" d="M123 47h1M80 123h1" />
<path stroke="#737373" d="M10 48h1M76 74h1M107 83h3M110 85h5M107 86h7M107 87h3M106 88h6M113 88h1M105 89h2M108 89h5M103 90h6M104 91h8M101 92h6M111 92h1M99 93h3M91 97h1M49 117h1M78 117h1" />
<path stroke="#646564" d="M25 48h1" />
<path stroke="rgba(255,255,255,0.06274509803921569)" d="M124 48h1M48 124h1" />
<path stroke="rgba(255,255,255,0.3058823529411765)" d="M3 49h1" />
<path stroke="#e6e6e6" d="M9 49h1M11 84h1" />
<path stroke="#828382" d="M91 49h1" />
<path stroke="rgba(255,255,255,0.28627450980392155)" d="M124 49h1M78 124h1" />
<path stroke="#cfcfcf" d="M43 50h1M60 79h1M91 79h1" />
<path stroke="#565656" d="M86 50h1M87 51h1M94 60h1M77 71h1M37 72h1M106 86h1M70 95h2M50 99h1" />
<path stroke="#818081" d="M115 50h1" />
<path stroke="#c8c8c8" d="M118 50h1M78 61h1M84 89h1" />
<path stroke="#6c6c6c" d="M10 51h2M11 52h1M10 53h2M10 54h2M11 55h1M28 55h1M92 56h1M13 58h3M13 59h3M13 60h4M13 61h4M13 62h4M17 63h1M15 64h2M18 65h1M14 66h1M18 66h3M17 67h4M17 68h4M17 69h6M18 70h5M17 71h1M23 71h1M66 71h1M21 72h1M24 72h1M22 73h1M20 74h2M23 74h2M22 75h4M23 76h3M23 77h5M24 78h2M27 78h1M26 79h1M28 79h1M25 80h3M24 81h1M26 81h2M25 82h2M28 82h3M32 82h1M28 83h1M27 84h5M28 85h5M28 86h5M28 87h4M33 87h1M106 87h1M28 88h1M30 88h1M32 88h2M32 89h3M33 90h1M32 91h4M31 92h6M31 93h2M36 93h3M36 94h4M36 95h4M35 96h5M37 97h3M34 98h5M41 98h1M38 99h4M33 100h1M36 100h1M39 100h3M81 100h1M38 101h4M78 101h1M47 102h1M41 103h2M44 103h3M42 104h5M44 105h4M67 105h1M41 106h5M47 106h4M64 106h1M46 107h5M43 108h1M46 108h5M45 109h5M54 109h1M48 110h2M51 110h2" />
<path stroke="#f6f6f6" d="M48 51h1" />
<path stroke="#797979" d="M88 51h1M88 62h1M115 64h4M99 65h3M108 65h7M116 65h3M98 66h1M100 66h6M109 66h10M8 67h1M98 67h10M109 67h10M99 68h4M106 68h6M103 69h2M106 70h1M105 81h1" />
<path stroke="rgba(255,255,255,0.7411764705882353)" d="M124 51h1M125 58h1M124 76h1M51 124h1" />
<path stroke="#6c6d6c" d="M10 52h1M16 65h1M27 82h1M32 90h1M35 95h1" />
<path stroke="#565756" d="M88 52h1" />
<path stroke="#808180" d="M117 52h1" />
<path stroke="rgba(255,255,255,0.9294117647058824)" d="M124 52h1M94 117h1M39 120h1" />
<path stroke="#bababa" d="M28 53h1M75 75h1M101 90h1M85 97h1M106 100h1" />
<path stroke="#595959" d="M89 53h1M96 65h1M64 72h1M61 75h1M75 76h1M40 79h1M42 90h1M78 97h1" />
<path stroke="#7c7c7c" d="M90 53h1M94 58h1M114 58h4M98 59h4M105 59h3M110 59h5M118 59h1M96 60h3M102 60h9M112 60h7M96 61h16M115 61h4M99 62h2M102 62h2M112 62h1M31 63h1M119 64h1" />
<path stroke="#d4d4d4" d="M8 54h1M86 65h1M98 74h1M10 81h1M92 90h1M50 118h1M77 118h1" />
<path stroke="#686968" d="M21 54h1M24 58h1M30 64h1M65 102h1M65 104h1" />
<path stroke="#5c5c5c" d="M90 54h1M73 68h1M42 91h1M83 95h1M54 98h1" />
<path stroke="rgba(255,255,255,0.27058823529411763)" d="M125 54h1M107 108h1M54 125h1M73 125h1" />
<path stroke="rgba(255,255,255,0.4196078431372549)" d="M2 55h1" />
<path stroke="#7e7f7e" d="M100 55h1" />
<path stroke="#cbcbcb" d="M119 55h1M76 68h1M48 70h1M107 99h1M88 114h1" />
<path stroke="#d0d0d0" d="M29 56h1M95 110h1" />
<path stroke="#b5b5b5" d="M119 56h1M88 63h1M67 85h1M62 86h1M80 117h1" />
<path stroke="#767676" d="M93 57h1M8 66h1M83 71h1M111 72h2M104 73h1M106 73h3M108 74h10M103 75h15M103 76h1M105 76h4M104 77h2M111 77h4M107 78h1M110 79h1M106 81h1M86 98h1" />
<path stroke="rgba(255,255,255,0.6549019607843137)" d="M125 57h1M125 70h1" />
<path stroke="rgba(255,255,255,0.8313725490196079)" d="M2 59h1M99 114h1" />
<path stroke="#cdcdcd" d="M79 59h1M87 61h1M114 88h1M110 95h1M39 114h1" />
<path stroke="#f3f3f3" d="M45 60h1M85 65h1M61 77h1M16 94h1" />
<path stroke="rgba(255,255,255,0.8941176470588236)" d="M125 60h1M22 109h1M67 125h1" />
<path stroke="#747574" d="M8 61h1M110 84h1" />
<path stroke="#f4f4f4" d="M31 61h1M63 74h1M96 76h1M118 78h1M60 86h1M33 111h1M94 111h1" />
<path stroke="#e3e3e3" d="M78 62h1M87 65h1M64 73h1M74 76h1M19 98h1" />
<path stroke="#7c7d7c" d="M101 62h1" />
<path stroke="#c3c3c3" d="M32 64h1M92 96h1" />
<path stroke="#dadada" d="M88 64h1" />
<path stroke="#7a7b7a" d="M112 64h1" />
<path stroke="#727272" d="M8 65h1M98 68h1M99 70h1M9 74h1M62 74h1M110 90h3M101 91h3M100 92h1M107 92h4M102 93h9M98 94h11M96 95h14M94 96h15M98 97h6M95 98h4M102 98h5M86 99h10M98 99h9M83 100h7M95 100h6M80 101h5M92 101h5M77 102h3M89 102h3M95 102h9M75 103h1M79 103h9M99 103h1M83 104h1M95 104h1M89 106h1M99 106h1M73 107h1M92 111h1M43 115h1M84 115h1" />
<path stroke="#6d6c6d" d="M15 65h1M16 67h1M25 81h1M27 85h1M22 86h1M30 91h1M28 93h1M39 109h1" />
<path stroke="#e5e5e5" d="M88 65h1M83 67h1M62 75h1M97 75h1M72 79h1M93 90h1M29 108h1M81 117h1" />
<path stroke="#707070" d="M85 67h1M77 68h1M79 70h1M9 72h1M11 72h1M100 72h1M9 73h1M10 74h1M10 75h1M10 76h2M10 77h1M10 78h1M13 79h3M11 81h2M13 83h1M12 84h1M13 85h2M13 86h1M14 88h1M16 89h1M104 89h1M18 94h1M22 97h1M21 99h1M60 108h1M35 111h1M52 111h1M49 112h1M46 113h1M43 114h1" />
<path stroke="rgba(254,254,254,0.8941176470588236)" d="M125 67h1" />
<path stroke="rgba(255,255,255,0.7372549019607844)" d="M125 69h1M76 124h1" />
<path stroke="#6f6e6f" d="M9 70h1M14 81h1M13 82h1M21 87h1M21 97h1M24 100h1M42 114h1" />
<path stroke="#ededed" d="M45 70h1M116 84h1" />
<path stroke="#e2e2e2" d="M46 70h1" />
<path stroke="#b8b8b8" d="M69 70h1M83 116h1" />
<path stroke="#ebebeb" d="M81 70h1M76 72h1M59 83h1M97 93h1M54 119h1M73 119h1" />
<path stroke="#787978" d="M101 70h1" />
<path stroke="#6b6a6b" d="M25 71h1M27 73h1M27 74h1M35 87h1M36 91h1M54 107h1" />
<path stroke="#777677" d="M111 71h1" />
<path stroke="#bebebe" d="M8 72h1M9 77h1M59 82h1M13 88h1" />
<path stroke="#767776" d="M105 73h1M104 76h1M110 77h1M108 78h1" />
<path stroke="rgba(255,255,255,0.26666666666666666)" d="M125 73h1" />
<path stroke="rgba(255,255,255,0.10588235294117647)" d="M2 74h1" />
<path stroke="#707170" d="M11 75h1" />
<path stroke="#f7f6f7" d="M101 75h1" />
<path stroke="#6a6b6a" d="M29 76h1M34 79h1M34 82h1M39 91h1M52 103h1" />
<path stroke="#d1d1d1" d="M102 76h1M88 81h1M115 86h1" />
<path stroke="#757475" d="M116 76h1" />
<path stroke="#a9a8a9" d="M118 76h1M73 78h1" />
<path stroke="#efeeef" d="M9 78h1" />
<path stroke="rgba(255,255,255,0.058823529411764705)" d="M124 79h1M79 124h1" />
<path stroke="rgba(255,255,255,0.7686274509803922)" d="M123 80h1M116 96h1M31 116h1" />
<path stroke="#f5f4f5" d="M102 81h1" />
<path stroke="#444444" d="M104 81h1" />
<path stroke="rgba(255,255,255,0.49019607843137253)" d="M123 81h1M46 123h1" />
<path stroke="#1c1c1c" d="M103 82h2M103 83h3M102 84h4M102 85h4M74 86h1M102 86h1M104 86h2M75 87h1M103 87h2M77 88h1" />
<path stroke="#1e1e1e" d="M105 82h1M73 86h1" />
<path stroke="rgba(255,255,255,0.8470588235294118)" d="M5 83h1" />
<path stroke="#1d1d1d" d="M102 83h1M76 87h1M78 88h1M103 88h1M80 89h1" />
<path stroke="#3d3d3d" d="M106 83h1" />
<path stroke="#f6f7f6" d="M70 84h1" />
<path stroke="#4f4f4f" d="M73 84h1" />
<path stroke="#343434" d="M106 84h1M74 85h1" />
<path stroke="#4c4c4c" d="M72 85h1M78 87h1" />
<path stroke="#212121" d="M73 85h1" />
<path stroke="#515151" d="M75 85h1M81 88h1" />
<path stroke="#434343" d="M106 85h1" />
<path stroke="rgba(255,255,255,0.1843137254901961)" d="M122 85h1M116 97h1M30 116h1" />
<path stroke="#6e6f6e" d="M20 86h1M23 96h1M36 103h1M35 106h1M35 109h1M41 111h1" />
<path stroke="#3c3c3c" d="M72 86h1" />
<path stroke="#292929" d="M75 86h1" />
<path stroke="#494949" d="M76 86h1M77 89h1" />
<path stroke="#1c1d1c" d="M103 86h1" />
<path stroke="#484848" d="M73 87h1" />
<path stroke="#282828" d="M74 87h1" />
<path stroke="#323232" d="M77 87h1" />
<path stroke="#d3d3d3" d="M101 87h1M41 115h1" />
<path stroke="#2b2b2b" d="M102 87h1" />
<path stroke="#2c2c2c" d="M105 87h1" />
<path stroke="#424242" d="M75 88h1M80 88h1" />
<path stroke="#2a2a2a" d="M76 88h1" />
<path stroke="#2d2d2d" d="M79 88h1" />
<path stroke="#3e3e3e" d="M104 88h1" />
<path stroke="#737273" d="M112 88h1M107 89h1M109 90h1" />
<path stroke="rgba(255,255,255,0.5137254901960784)" d="M7 89h1M77 124h1" />
<path stroke="#383838" d="M78 89h1" />
<path stroke="#272727" d="M79 89h1" />
<path stroke="#1f1f1f" d="M81 89h1" />
<path stroke="#3a3a3a" d="M82 89h1" />
<path stroke="#4e4e4e" d="M80 90h1" />
<path stroke="#454545" d="M81 90h1" />
<path stroke="#4b4b4b" d="M85 90h1" />
<path stroke="rgba(255,255,255,0.5568627450980392)" d="M8 91h1" />
<path stroke="#848584" d="M15 91h1" />
<path stroke="rgba(255,255,255,0.5372549019607843)" d="M119 91h1" />
<path stroke="#d9d9d9" d="M15 92h1" />
<path stroke="rgba(255,255,255,0.5647058823529412)" d="M118 93h1M93 118h1" />
<path stroke="#cccccc" d="M96 94h1M90 113h1" />
<path stroke="#727372" d="M109 94h1" />
<path stroke="rgba(255,255,255,0.37254901960784315)" d="M117 95h1" />
<path stroke="rgba(255,255,255,0.984313725490196)" d="M12 97h1M115 97h1M30 115h1M97 115h1" />
<path stroke="rgba(255,255,255,0.5529411764705883)" d="M115 98h1M98 115h1" />
<path stroke="rgba(255,254,255,0.8117647058823529)" d="M13 99h1" />
<path stroke="rgba(255,255,255,0.8235294117647058)" d="M114 99h1" />
<path stroke="rgba(255,255,255,0.34509803921568627)" d="M14 101h1" />
<path stroke="#717071" d="M102 101h1M71 104h1M99 105h1M62 108h1M92 108h1M71 109h1M83 109h1M94 109h1M73 110h1M54 111h1M64 111h1M73 111h1M81 111h1M56 114h1M70 114h1M80 114h2M48 116h1M72 116h2M76 117h1" />
<path stroke="rgba(255,255,255,0.3607843137254902)" d="M113 101h1" />
<path stroke="rgba(255,255,255,0.6196078431372549)" d="M15 102h1" />
<path stroke="#696869" d="M58 102h1" />
<path stroke="rgba(255,255,255,0.796078431372549)" d="M111 103h1M103 111h1M96 116h1M86 121h1" />
<path stroke="rgba(255,255,255,0.8627450980392157)" d="M110 104h1" />
<path stroke="rgba(255,255,255,0.13333333333333333)" d="M17 105h1" />
<path stroke="rgba(255,255,255,0.9058823529411765)" d="M18 105h1M105 109h1" />
<path stroke="rgba(255,254,255,0.9137254901960784)" d="M109 105h1" />
<path stroke="rgba(255,255,255,0.19215686274509805)" d="M109 106h1M106 109h1" />
<path stroke="rgba(255,255,255,0.9411764705882353)" d="M21 108h1M27 113h1M37 119h1" />
<path stroke="rgba(255,255,255,0.8549019607843137)" d="M23 110h1" />
<path stroke="#cacaca" d="M32 110h1" />
<path stroke="rgba(255,255,255,0.08627450980392157)" d="M104 111h1M35 119h1" />
<path stroke="#e0e1e0" d="M35 112h1" />
<path stroke="rgba(255,255,255,0.3254901960784314)" d="M26 113h1" />
<path stroke="rgba(255,255,255,0.35294117647058826)" d="M101 113h1" />
<path stroke="rgba(255,255,255,0.8117647058823529)" d="M28 114h1" />
<path stroke="rgba(255,255,255,0.16862745098039217)" d="M100 114h1" />
<path stroke="rgba(255,253,255,0.5607843137254902)" d="M29 115h1" />
<path stroke="rgba(255,255,255,0.20392156862745098)" d="M97 116h1" />
<path stroke="rgba(255,255,255,0.9137254901960784)" d="M33 117h1" />
<path stroke="rgba(255,255,255,0.06666666666666667)" d="M94 118h1" />
<path stroke="rgba(253,253,253,0.5019607843137255)" d="M36 119h1" />
<path stroke="rgba(255,253,255,0.5686274509803921)" d="M91 119h1" />
<path stroke="rgba(255,255,255,0.12156862745098039)" d="M42 122h1" />
<path stroke="rgba(255,255,255,0.4823529411764706)" d="M43 122h1" />
<path stroke="rgba(255,255,255,0.8431372549019608)" d="M44 122h1" />
<path stroke="rgba(254,254,254,0.8666666666666667)" d="M83 122h1" />
<path stroke="rgba(255,255,255,0.48627450980392156)" d="M81 123h1" />
<path stroke="rgba(255,255,255,0.2901960784313726)" d="M49 124h1" />
<path stroke="rgba(255,255,255,0.6509803921568628)" d="M57 125h1" />
<path stroke="rgba(255,255,255,0.7450980392156863)" d="M58 125h1M69 125h1" />
<path stroke="rgba(255,255,255,0.6470588235294118)" d="M70 125h1" />
</svg>