<svg xmlns="http://www.w3.org/2000/svg" viewBox="0 -0.5 192 128" shape-rendering="crispEdges">
<path stroke="rgba(90,90,90,0.8509803921568627)" d="M18 18h2M18 19h2" />
<path stroke="#626262" d="M20 18h12M20 19h12M20 20h12M20 21h12M18 22h2M18 23h2M22 24h10M172 24h2M22 25h10M172 25h2M18 26h2M22 26h10M18 27h2M22 27h10M18 28h2M22 28h10M18 29h2M22 29h10M18 30h2M22 30h10M18 31h2M22 31h10M18 32h2M22 32h10M18 33h2M22 33h10M18 34h2M22 34h10M18 35h2M22 35h10M18 36h2M22 36h10M18 37h2M22 37h10M18 38h2M22 38h10M18 39h2M22 39h10M18 40h2M22 40h10M18 41h2M22 41h10M18 42h2M22 42h10M18 43h2M22 43h10M18 44h2M22 44h10M18 45h2M22 45h10M18 46h2M22 46h10M18 47h2M22 47h10M18 48h2M22 48h10M18 49h2M22 49h10M22 50h10M22 51h10M22 52h10M22 53h10M22 54h10M22 55h10M22 56h10M22 57h10M22 58h10M22 59h10M18 60h2M22 60h10M18 61h2M22 61h10M18 62h2M22 62h10M18 63h2M22 63h10M18 64h2M22 64h10M18 65h2M22 65h10M22 66h10M22 67h10M22 68h10M22 69h10M22 70h10M22 71h10M22 72h10M22 73h10M22 74h10M22 75h10M22 76h10M22 77h10M22 78h10M22 79h10M22 80h10M22 81h10M22 84h10M22 85h10M106 86h4M116 86h44M162 86h2M166 86h2M106 87h4M116 87h44M162 87h2M166 87h2M104 88h2M104 89h2M102 90h2M102 91h2M102 92h2M102 93h2M102 94h2M102 95h2M102 96h2M102 97h2M102 98h2M102 99h2M102 100h2M102 101h2" />
<path stroke="#636363" d="M32 18h2M32 19h2M32 20h2M32 21h2M18 50h2M18 51h2M18 52h2M18 53h2M18 54h2M18 55h2M18 56h2M18 57h2M18 58h2M18 59h2M18 66h2M18 67h2M18 68h2M18 69h2M18 70h2M18 71h2M18 72h2M18 73h2M18 74h2M18 75h2M18 76h2M18 77h2M18 78h2M18 79h2M18 80h2M18 81h2M18 82h2M18 83h2M18 84h4M18 85h4" />
<path stroke="#656565" d="M34 18h2M34 19h2M34 20h2M34 21h2M34 22h2M34 23h2M34 24h2M34 25h2M34 26h2M34 27h2M34 28h2M34 29h2M34 30h2M34 31h2M34 32h2M34 33h2M34 34h2M34 35h2M34 36h2M34 37h2M34 38h2M34 39h2M34 40h2M34 41h2M34 42h2M34 43h2M34 44h2M34 45h2M34 46h2M34 47h2M34 48h2M34 49h2M34 50h2M34 51h2M34 52h2M34 53h2M34 54h2M34 55h2M34 56h2M34 57h2M34 58h2M34 59h2M34 60h2M34 61h2M34 62h2M34 63h2M34 64h2M34 65h2M34 66h2M34 67h2M34 68h2M34 69h2M34 70h2M34 71h2M34 72h2M34 73h2M34 74h2M34 75h2M34 76h2M34 77h2M34 78h2M34 79h2M34 80h2M34 81h2M34 82h2M34 83h2M32 84h4M32 85h4M20 86h2M24 86h6M32 86h4M20 87h2M24 87h6M32 87h4M20 88h16M20 89h16M22 90h14M22 91h14M22 92h10M34 92h2M22 93h10M34 93h2M22 94h10M34 94h2M22 95h10M34 95h2M22 96h10M34 96h2M22 97h10M34 97h2M20 98h12M34 98h2M20 99h12M34 99h2M18 100h14M34 100h2M18 101h14M34 101h2M18 102h14M34 102h2M18 103h14M34 103h2" />
<path stroke="#696969" d="M36 18h138M36 19h138M174 26h2M174 27h2M174 28h2M174 29h2M174 30h2M174 31h2M174 32h2M174 33h2M174 34h2M174 35h2M174 36h2M174 37h2M174 38h2M174 39h2M174 40h2M174 41h2M174 42h2M174 43h2M174 44h2M174 45h2M174 46h2M174 47h2M174 48h2M174 49h2M174 50h2M174 51h2M174 52h2M174 53h2M174 54h2M174 55h2M174 56h2M174 57h2M174 58h2M174 59h2M174 60h2M174 61h2M174 62h2M174 63h2M174 64h2M174 65h2M174 66h2M174 67h2M174 68h2M174 69h2M174 70h2M174 71h2M174 72h2M174 73h2M174 74h2M174 75h2M174 76h2M174 77h2M174 78h2M174 79h2M174 80h2M174 81h2M174 82h2M174 83h2M174 84h2M174 85h2M174 86h2M174 87h2M174 88h2M174 89h2M174 90h2M174 91h2M174 92h2M174 93h2M174 94h2M174 95h2M174 98h2M174 99h2M174 100h2M174 101h2" />
<path stroke="rgba(87,87,87,0.8823529411764706)" d="M174 18h2M174 19h2" />
<path stroke="rgba(96,96,96,0.9882352941176471)" d="M18 20h2M18 21h2" />
<path stroke="#616161" d="M36 20h138M36 21h138M172 22h2M172 23h2M110 24h2M114 24h2M110 25h2M114 25h2M110 26h2M114 26h2M172 26h2M110 27h2M114 27h2M172 27h2M110 28h2M114 28h2M172 28h2M110 29h2M114 29h2M172 29h2M110 30h2M114 30h2M172 30h2M110 31h2M114 31h2M172 31h2M110 32h2M114 32h2M172 32h2M110 33h2M114 33h2M172 33h2M110 34h2M114 34h2M172 34h2M110 35h2M114 35h2M172 35h2M110 36h2M114 36h2M172 36h2M110 37h2M114 37h2M172 37h2M110 38h2M114 38h2M172 38h2M110 39h2M114 39h2M172 39h2M110 40h2M114 40h2M172 40h2M110 41h2M114 41h2M172 41h2M110 42h2M114 42h2M172 42h2M110 43h2M114 43h2M172 43h2M110 44h2M114 44h2M172 44h2M110 45h2M114 45h2M172 45h2M110 46h2M114 46h2M172 46h2M110 47h2M114 47h2M172 47h2M110 48h2M114 48h2M172 48h2M110 49h2M114 49h2M172 49h2M110 50h2M114 50h2M172 50h2M110 51h2M114 51h2M172 51h2M110 52h2M114 52h2M172 52h2M110 53h2M114 53h2M172 53h2M110 54h2M114 54h2M172 54h2M110 55h2M114 55h2M172 55h2M110 56h2M114 56h2M172 56h2M110 57h2M114 57h2M172 57h2M110 58h2M114 58h2M172 58h2M110 59h2M114 59h2M172 59h2M110 60h2M114 60h2M172 60h2M110 61h2M114 61h2M172 61h2M110 62h2M114 62h2M172 62h2M110 63h2M114 63h2M172 63h2M110 64h2M114 64h2M172 64h2M110 65h2M114 65h2M172 65h2M110 66h2M114 66h2M172 66h2M110 67h2M114 67h2M172 67h2M110 68h2M114 68h2M172 68h2M110 69h2M114 69h2M172 69h2M110 70h2M114 70h2M172 70h2M110 71h2M114 71h2M172 71h2M110 72h2M114 72h2M172 72h2M110 73h2M114 73h2M172 73h2M110 74h2M114 74h2M172 74h2M110 75h2M114 75h2M172 75h2M110 76h2M114 76h2M172 76h2M110 77h2M114 77h2M172 77h2M110 78h2M114 78h2M110 79h2M114 79h2M110 80h2M114 80h2M110 81h2M114 81h2M110 82h2M114 82h2M110 83h2M114 83h2M110 84h2M114 84h2M172 84h2M110 85h2M114 85h2M172 85h2M110 86h2M114 86h2M110 87h2M114 87h2M172 88h2M172 89h2M172 90h2M172 91h2M172 92h2M172 93h2M172 94h2M172 95h2M172 96h2M172 97h2M172 98h2M172 99h2M172 100h2M172 101h2M172 102h2M172 103h2" />
<path stroke="rgba(95,95,95,0.9882352941176471)" d="M174 20h2M174 21h2" />
<path stroke="#4f4f4f" d="M20 22h14M20 23h14M20 24h2M32 24h2M20 25h2M32 25h2M20 26h2M32 26h2M20 27h2M32 27h2M20 28h2M32 28h2M20 29h2M32 29h2M20 30h2M32 30h2M20 31h2M32 31h2M20 32h2M32 32h2M20 33h2M32 33h2M20 34h2M32 34h2M20 35h2M32 35h2M20 36h2M32 36h2M20 37h2M32 37h2M20 38h2M32 38h2M20 39h2M32 39h2M20 40h2M32 40h2M20 41h2M32 41h2M20 42h2M32 42h2M20 43h2M32 43h2M20 44h2M32 44h2M20 45h2M32 45h2M20 46h2M32 46h2M20 47h2M32 47h2M20 48h2M32 48h2M20 49h2M32 49h2M20 50h2M32 50h2M20 51h2M32 51h2M20 52h2M32 52h2M20 53h2M32 53h2M20 54h2M32 54h2M20 55h2M32 55h2M20 56h2M32 56h2M20 57h2M32 57h2M20 58h2M32 58h2M20 59h2M32 59h2M20 60h2M32 60h2M20 61h2M32 61h2M20 62h2M32 62h2M20 63h2M32 63h2M20 64h2M32 64h2M20 65h2M32 65h2M20 66h2M32 66h2M20 67h2M32 67h2M20 68h2M32 68h2M20 69h2M32 69h2M20 70h2M32 70h2M20 71h2M32 71h2M20 72h2M32 72h2M20 73h2M32 73h2M20 74h2M32 74h2M20 75h2M32 75h2M20 76h2M32 76h2M20 77h2M32 77h2M20 78h2M32 78h2M20 79h2M32 79h2M20 80h2M32 80h2M20 81h2M32 81h2M20 82h14M20 83h14" />
<path stroke="#4d4d4d" d="M36 22h136M36 23h136M36 24h2M112 24h2M170 24h2M36 25h2M112 25h2M170 25h2M36 26h2M112 26h2M170 26h2M36 27h2M112 27h2M170 27h2M36 28h2M112 28h2M170 28h2M36 29h2M112 29h2M170 29h2M36 30h2M112 30h2M170 30h2M36 31h2M112 31h2M170 31h2M36 32h2M112 32h2M170 32h2M36 33h2M112 33h2M170 33h2M36 34h2M112 34h2M170 34h2M36 35h2M112 35h2M170 35h2M36 36h2M112 36h2M170 36h2M36 37h2M112 37h2M170 37h2M36 38h2M112 38h2M170 38h2M36 39h2M112 39h2M170 39h2M36 40h2M112 40h2M170 40h2M36 41h2M112 41h2M170 41h2M36 42h2M112 42h2M170 42h2M36 43h2M112 43h2M170 43h2M36 44h2M112 44h2M170 44h2M36 45h2M112 45h2M170 45h2M36 46h2M112 46h2M170 46h2M36 47h2M112 47h2M170 47h2M36 48h2M112 48h2M170 48h2M36 49h2M112 49h2M170 49h2M36 50h2M112 50h2M170 50h2M36 51h2M112 51h2M170 51h2M36 52h2M112 52h2M170 52h2M36 53h2M112 53h2M170 53h2M36 54h2M112 54h2M170 54h2M36 55h2M112 55h2M170 55h2M36 56h2M112 56h2M170 56h2M36 57h2M112 57h2M170 57h2M36 58h2M112 58h2M170 58h2M36 59h2M112 59h2M170 59h2M36 60h2M112 60h2M170 60h2M36 61h2M112 61h2M170 61h2M36 62h2M112 62h2M170 62h2M36 63h2M112 63h2M170 63h2M36 64h2M112 64h2M170 64h2M36 65h2M112 65h2M170 65h2M36 66h2M112 66h2M170 66h2M36 67h2M112 67h2M170 67h2M36 68h2M112 68h2M170 68h2M36 69h2M112 69h2M170 69h2M36 70h2M112 70h2M170 70h2M36 71h2M112 71h2M170 71h2M36 72h2M112 72h2M170 72h2M36 73h2M112 73h2M170 73h2M36 74h2M112 74h2M170 74h2M36 75h2M112 75h2M170 75h2M36 76h2M112 76h2M170 76h2M36 77h2M112 77h2M170 77h2M36 78h2M112 78h2M36 79h2M112 79h2M36 80h2M112 80h2M170 80h2M36 81h2M112 81h2M170 81h2M36 82h2M112 82h2M36 83h2M112 83h2M36 84h2M112 84h2M170 84h2M36 85h2M112 85h2M170 85h2M36 86h2M112 86h2M36 87h2M112 87h2M36 88h2M36 89h2M36 90h2M170 90h2M36 91h2M170 91h2M36 92h2M170 92h2M36 93h2M170 93h2M36 94h2M170 94h2M36 95h2M170 95h2M36 96h2M170 96h2M36 97h2M170 97h2M36 98h2M170 98h2M36 99h2M170 99h2M36 100h2M170 100h2M36 101h2M170 101h2M36 102h136M36 103h136" />
<path stroke="rgba(102,102,102,0.9882352941176471)" d="M174 22h2M174 23h2" />
<path stroke="rgba(96,96,96,0.996078431372549)" d="M18 24h2M18 25h2" />
<path stroke="#585858" d="M38 24h72M116 24h54M38 25h72M116 25h54M38 26h72M116 26h2M168 26h2M38 27h72M116 27h2M168 27h2M38 28h72M116 28h2M168 28h2M38 29h72M116 29h2M168 29h2M38 30h72M116 30h2M168 30h2M38 31h72M116 31h2M168 31h2M38 32h72M116 32h2M168 32h2M38 33h72M116 33h2M168 33h2M38 34h72M116 34h2M168 34h2M38 35h72M116 35h2M168 35h2M38 36h72M116 36h2M168 36h2M38 37h72M116 37h2M168 37h2M38 38h72M116 38h2M168 38h2M38 39h72M116 39h2M168 39h2M38 40h72M116 40h2M168 40h2M38 41h72M116 41h2M168 41h2M38 42h72M116 42h2M168 42h2M38 43h72M116 43h2M168 43h2M38 44h72M116 44h2M168 44h2M38 45h72M116 45h2M168 45h2M38 46h72M116 46h2M168 46h2M38 47h72M116 47h2M168 47h2M38 48h72M116 48h2M168 48h2M38 49h72M116 49h2M168 49h2M38 50h72M116 50h2M168 50h2M38 51h72M116 51h2M168 51h2M38 52h72M116 52h2M168 52h2M38 53h72M116 53h2M168 53h2M38 54h72M116 54h2M168 54h2M38 55h72M116 55h2M168 55h2M38 56h72M116 56h2M168 56h2M38 57h72M116 57h2M168 57h2M38 58h72M116 58h2M168 58h2M38 59h72M116 59h2M168 59h2M38 60h72M116 60h2M168 60h2M38 61h72M116 61h2M168 61h2M38 62h72M116 62h54M38 63h72M116 63h54M38 64h72M116 64h4M166 64h4M38 65h72M116 65h4M166 65h4M38 66h72M116 66h2M38 67h72M116 67h2M38 68h72M116 68h2M122 68h2M130 68h4M140 68h4M146 68h6M154 68h2M38 69h72M116 69h2M122 69h2M130 69h4M140 69h4M146 69h6M154 69h2M38 70h72M116 70h2M124 70h8M134 70h6M142 70h2M148 70h4M154 70h2M158 70h6M38 71h72M116 71h2M124 71h8M134 71h6M142 71h2M148 71h4M154 71h2M158 71h6M38 72h72M116 72h2M124 72h8M134 72h6M142 72h2M146 72h2M150 72h2M154 72h2M162 72h2M38 73h72M116 73h2M124 73h8M134 73h6M142 73h2M146 73h2M150 73h2M154 73h2M162 73h2M38 74h72M116 74h2M124 74h8M134 74h6M142 74h2M146 74h2M150 74h2M154 74h2M158 74h6M38 75h72M116 75h2M124 75h8M134 75h6M142 75h2M146 75h2M150 75h2M154 75h2M158 75h6M38 76h72M116 76h2M124 76h8M134 76h6M142 76h2M146 76h4M154 76h2M158 76h6M38 77h72M116 77h2M124 77h8M134 77h6M142 77h2M146 77h4M154 77h2M158 77h6M38 78h72M116 78h2M122 78h2M130 78h4M140 78h4M146 78h6M154 78h2M158 78h6M38 79h72M116 79h2M122 79h2M130 79h4M140 79h4M146 79h6M154 79h2M158 79h6M38 80h72M116 80h2M38 81h72M116 81h2M38 82h72M116 82h2M38 83h72M116 83h2M38 84h72M116 84h4M38 85h72M116 85h4M38 86h68M38 87h68M38 88h64M38 89h64M38 90h64M38 91h64M38 92h64M38 93h64M38 94h64M38 95h64M38 96h64M38 97h64M38 98h64M38 99h64M38 100h64M38 101h64" />
<path stroke="#676767" d="M174 24h2M174 25h2M18 92h2M18 93h2M18 94h2M18 95h2M18 96h2M18 97h2" />
<path stroke="#4e4e4e" d="M118 26h50M118 27h50M118 28h50M118 29h50M118 30h50M118 31h50M118 32h50M118 33h50M118 34h50M118 35h50M118 36h50M118 37h50M118 38h50M118 39h50M118 40h50M118 41h50M118 42h50M118 43h50M118 44h50M118 45h50M118 46h50M118 47h50M118 48h50M118 49h50M118 50h50M118 51h50M118 52h50M118 53h50M118 54h50M118 55h50M118 56h50M118 57h50M118 58h50M118 59h50M118 60h50M118 61h50M106 88h66M106 89h66M104 90h2M104 91h2M104 92h2M104 93h2M104 94h2M104 95h2M104 96h2M104 97h2M104 98h2M104 99h2M104 100h2M104 101h2" />
<path stroke="#535353" d="M120 64h46M120 65h46M118 66h2M166 66h2M118 67h2M166 67h2M118 68h2M166 68h2M118 69h2M166 69h2M118 70h2M166 70h2M118 71h2M166 71h2M118 72h2M166 72h2M118 73h2M166 73h2M118 74h2M166 74h2M118 75h2M166 75h2M118 76h2M166 76h2M118 77h2M166 77h2M118 78h2M166 78h2M118 79h2M166 79h2M118 80h2M166 80h2M118 81h2M166 81h2M120 82h40M162 82h2M120 83h40M162 83h2" />
<path stroke="#595959" d="M120 66h46M120 67h46M120 68h2M164 68h2M120 69h2M164 69h2M120 70h2M164 70h2M120 71h2M164 71h2M120 72h2M164 72h2M120 73h2M164 73h2M120 74h2M164 74h2M120 75h2M164 75h2M120 76h2M164 76h2M120 77h2M164 77h2M120 78h2M164 78h2M120 79h2M164 79h2M120 80h46M120 81h46M166 84h2M166 85h2M102 88h2M102 89h2" />
<path stroke="#5b5b5b" d="M168 66h2M168 67h2M168 68h2M168 69h2M168 70h2M168 71h2M168 72h2M168 73h2M168 74h2M168 75h2M168 76h2M168 77h2M168 80h2M168 81h2M166 82h2M166 83h2M120 84h42M164 84h2M120 85h42M164 85h2" />
<path stroke="#2a2a2a" d="M124 68h6M134 68h6M144 68h2M152 68h2M156 68h8M124 69h6M134 69h6M144 69h2M152 69h2M156 69h8M122 70h2M132 70h2M140 70h2M144 70h4M152 70h2M156 70h2M122 71h2M132 71h2M140 71h2M144 71h4M152 71h2M156 71h2M122 72h2M132 72h2M140 72h2M144 72h2M148 72h2M152 72h2M156 72h6M122 73h2M132 73h2M140 73h2M144 73h2M148 73h2M152 73h2M156 73h6M122 74h2M132 74h2M140 74h2M144 74h2M148 74h2M152 74h2M156 74h2M122 75h2M132 75h2M140 75h2M144 75h2M148 75h2M152 75h2M156 75h2M122 76h2M132 76h2M140 76h2M144 76h2M150 76h4M156 76h2M122 77h2M132 77h2M140 77h2M144 77h2M150 77h4M156 77h2M124 78h6M134 78h6M144 78h2M152 78h2M156 78h2M124 79h6M134 79h6M144 79h2M152 79h2M156 79h2" />
<path stroke="#d0d0d0" d="M168 78h2M168 79h2M162 84h2M162 85h2" />
<path stroke="#cccccc" d="M170 78h2M170 79h2M170 82h2M170 83h2M170 86h2M170 87h2" />
<path stroke="#d1d1d1" d="M172 78h2M172 79h2M172 80h2M172 81h2M172 82h2M172 83h2M172 86h2M172 87h2" />
<path stroke="#565656" d="M118 82h2M118 83h2" />
<path stroke="#cecece" d="M160 82h2M164 82h2M160 83h2M164 83h2" />
<path stroke="#cfcfcf" d="M168 82h2M168 83h2M168 84h2M168 85h2" />
<path stroke="#646464" d="M18 86h2M22 86h2M30 86h2M18 87h2M22 87h2M30 87h2M32 92h2M32 93h2M32 94h2M32 95h2M32 96h2M32 97h2M32 98h2M32 99h2M32 100h2M32 101h2M32 102h2M32 103h2" />
<path stroke="#d2d2d2" d="M160 86h2M164 86h2M168 86h2M160 87h2M164 87h2M168 87h2" />
<path stroke="#666666" d="M18 88h2M18 89h2M18 90h4M18 91h4M20 92h2M20 93h2M20 94h2M20 95h2M20 96h2M20 97h2M18 98h2M18 99h2" />
<path stroke="#505050" d="M106 90h4M116 90h54M106 91h4M116 91h54M106 92h2M116 92h2M124 92h2M130 92h2M136 92h4M144 92h4M158 92h2M166 92h4M106 93h2M116 93h2M124 93h2M130 93h2M136 93h4M144 93h4M158 93h2M166 93h4M106 94h2M116 94h2M120 94h6M128 94h2M132 94h2M136 94h2M140 94h4M146 94h6M154 94h6M162 94h8M106 95h2M116 95h2M120 95h6M128 95h2M132 95h2M136 95h2M140 95h4M146 95h6M154 95h6M162 95h8M106 96h2M116 96h2M124 96h2M128 96h2M132 96h2M136 96h2M140 96h4M146 96h6M154 96h6M166 96h4M106 97h2M116 97h2M124 97h2M128 97h2M132 97h2M136 97h2M140 97h4M146 97h6M154 97h6M166 97h4M106 98h2M116 98h2M120 98h6M128 98h6M136 98h2M140 98h4M146 98h6M154 98h6M162 98h8M106 99h2M116 99h2M120 99h6M128 99h6M136 99h2M140 99h4M146 99h6M154 99h6M162 99h8" />
<path stroke="#515151" d="M110 90h6M110 91h6M114 92h2M114 93h2M110 94h4M110 95h4M110 98h2M114 98h2M110 99h2M114 99h2M110 100h4M116 100h2M110 101h4M116 101h2" />
<path stroke="#6a6a6a" d="M108 92h2M118 92h4M108 93h2M118 93h4M108 94h2M118 94h2M108 95h2M118 95h2M108 96h2M118 96h2M108 97h2M118 97h2M108 98h2M118 98h2M108 99h2M118 99h2" />
<path stroke="#6b6b6b" d="M110 92h4M122 92h2M126 92h4M132 92h4M140 92h4M148 92h10M160 92h6M110 93h4M122 93h2M126 93h4M132 93h4M140 93h4M148 93h10M160 93h6M114 94h2M126 94h2M130 94h2M134 94h2M138 94h2M144 94h2M152 94h2M160 94h2M114 95h2M126 95h2M130 95h2M134 95h2M138 95h2M144 95h2M152 95h2M160 95h2M110 96h6M120 96h4M126 96h2M130 96h2M134 96h2M138 96h2M144 96h2M152 96h2M160 96h6M174 96h2M110 97h6M120 97h4M126 97h2M130 97h2M134 97h2M138 97h2M144 97h2M152 97h2M160 97h6M174 97h2M112 98h2M126 98h2M134 98h2M138 98h2M144 98h2M152 98h2M160 98h2M112 99h2M126 99h2M134 99h2M138 99h2M144 99h2M152 99h2M160 99h2M114 100h2M114 101h2" />
<path stroke="#525252" d="M106 100h2M124 100h2M128 100h6M136 100h4M144 100h8M154 100h6M166 100h4M106 101h2M124 101h2M128 101h6M136 101h4M144 101h8M154 101h6M166 101h4" />
<path stroke="#6c6c6c" d="M108 100h2M118 100h2M108 101h2M118 101h2" />
<path stroke="#6d6d6d" d="M120 100h4M126 100h2M134 100h2M140 100h4M152 100h2M160 100h6M120 101h4M126 101h2M134 101h2M140 101h4M152 101h2M160 101h6" />
<path stroke="rgba(96,96,96,0.9921568627450981)" d="M174 102h2M174 103h2" />
<path stroke="rgba(73,73,73,0.9529411764705882)" d="M18 104h2M174 104h2M18 105h2M174 105h2M20 106h26M48 106h20M70 106h104M20 107h26M48 107h20M70 107h104M22 108h48M72 108h100M22 109h48M72 109h100" />
<path stroke="rgba(75,75,75,0.9568627450980393)" d="M20 104h154M20 105h154" />
<path stroke="rgba(100,100,100,0.9764705882352941)" d="M18 106h2M174 106h2M18 107h2M174 107h2M20 108h2M172 108h2M20 109h2M172 109h2" />
<path stroke="rgba(72,72,72,0.9529411764705882)" d="M46 106h2M68 106h2M46 107h2M68 107h2M70 108h2M70 109h2" />
<path stroke="rgba(112,112,112,0.9882352941176471)" d="M18 108h2M174 108h2M18 109h2M174 109h2" />
</svg>