<svg xmlns="http://www.w3.org/2000/svg" viewBox="0 -0.5 192 128" shape-rendering="crispEdges">
<path stroke="rgba(77,77,77,0.0392156862745098)" d="M42 28h2M42 29h2M24 32h2M24 33h2M42 40h2M42 41h2M50 54h2M50 55h2M54 56h2M54 57h2M62 60h2M62 61h2M84 70h2M84 71h2M80 86h2M100 86h2M80 87h2M100 87h2" />
<path stroke="#0f0f0f" d="M44 28h12M44 29h12M42 30h2M56 30h6M42 31h2M56 31h6M44 32h8M62 32h4M44 33h8M62 33h4M52 34h6M66 34h4M52 35h6M66 35h4M58 36h6M70 36h4M58 37h6M70 37h4M64 38h4M74 38h4M64 39h4M74 39h4M46 40h4M68 40h4M78 40h2M46 41h4M68 41h4M78 41h2M44 42h2M50 42h6M72 42h4M80 42h2M44 43h2M50 43h6M72 43h4M80 43h2M44 44h6M56 44h4M76 44h2M82 44h2M44 45h6M56 45h4M76 45h2M82 45h2M50 46h6M60 46h4M78 46h2M84 46h2M50 47h6M60 47h4M78 47h2M84 47h2M56 48h4M64 48h4M80 48h2M86 48h2M56 49h4M64 49h4M80 49h2M86 49h2M60 50h4M68 50h2M82 50h2M88 50h2M60 51h4M68 51h2M82 51h2M88 51h2M64 52h4M70 52h2M84 52h2M90 52h2M64 53h4M70 53h2M84 53h2M90 53h2M68 54h2M72 54h2M86 54h2M90 54h2M68 55h2M72 55h2M86 55h2M90 55h2M50 56h4M70 56h2M74 56h2M86 56h2M92 56h2M50 57h4M70 57h2M74 57h2M86 57h2M92 57h2M48 58h2M54 58h4M72 58h2M76 58h2M88 58h2M92 58h2M48 59h2M54 59h4M72 59h2M76 59h2M88 59h2M92 59h2M48 60h4M58 60h4M74 60h2M78 60h2M88 60h2M94 60h2M48 61h4M58 61h4M74 61h2M78 61h2M88 61h2M94 61h2M52 62h4M62 62h2M74 62h2M78 62h2M90 62h2M94 62h2M52 63h4M62 63h2M74 63h2M78 63h2M90 63h2M94 63h2M56 64h4M64 64h2M76 64h2M80 64h2M90 64h2M96 64h2M56 65h4M64 65h2M76 65h2M80 65h2M90 65h2M96 65h2M60 66h2M66 66h2M76 66h2M80 66h2M92 66h2M96 66h2M60 67h2M66 67h2M76 67h2M80 67h2M92 67h2M96 67h2M62 68h2M68 68h2M78 68h2M82 68h2M92 68h2M98 68h2M62 69h2M68 69h2M78 69h2M82 69h2M92 69h2M98 69h2M64 70h2M68 70h2M78 70h2M82 70h2M92 70h2M98 70h2M64 71h2M68 71h2M78 71h2M82 71h2M92 71h2M98 71h2M64 72h2M70 72h2M80 72h2M84 72h2M94 72h2M98 72h2M64 73h2M70 73h2M80 73h2M84 73h2M94 73h2M98 73h2M66 74h2M70 74h2M80 74h2M84 74h2M94 74h2M100 74h2M66 75h2M70 75h2M80 75h2M84 75h2M94 75h2M100 75h2M66 76h2M72 76h2M80 76h2M84 76h2M94 76h2M100 76h2M66 77h2M72 77h2M80 77h2M84 77h2M94 77h2M100 77h2M68 78h2M72 78h2M82 78h2M86 78h2M96 78h2M100 78h2M68 79h2M72 79h2M82 79h2M86 79h2M96 79h2M100 79h2M68 80h4M82 80h2M86 80h2M96 80h2M100 80h2M68 81h4M82 81h2M86 81h2M96 81h2M100 81h2M82 82h4M96 82h2M100 82h2M82 83h4M96 83h2M100 83h2M96 84h2M100 84h2M96 85h2M100 85h2M98 86h2M98 87h2" />
<path stroke="rgba(13,13,13,0.6313725490196078)" d="M44 30h12M44 31h12M52 32h10M52 33h10M58 34h8M58 35h8M64 36h6M64 37h6M68 38h6M68 39h6M72 40h6M72 41h6M76 42h4M76 43h4M78 44h4M78 45h4M80 46h4M80 47h4M82 48h4M82 49h4M84 50h4M84 51h4M86 52h4M86 53h4M88 54h2M88 55h2M88 56h4M88 57h4M90 58h2M90 59h2M90 60h4M90 61h4M92 62h2M92 63h2M92 64h4M92 65h4M94 66h2M94 67h2M94 68h2M94 69h2" />
<path stroke="rgba(111,111,111,0.7411764705882353)" d="M46 42h4M46 43h4M50 44h6M50 45h6M56 46h4M56 47h4M60 48h4M60 49h4M64 50h4M64 51h4M68 52h2M68 53h2M74 58h2M74 59h2M76 62h2M76 63h2M78 64h2M78 65h2M78 66h2M78 67h2M80 68h2M80 69h2M80 70h2M80 71h2" />
<path stroke="rgba(112,112,112,0.7529411764705882)" d="M70 54h2M70 55h2M72 56h2M72 57h2M76 60h2M76 61h2" />
<path stroke="rgba(100,100,100,0.7019607843137254)" d="M50 58h2M50 59h2M56 62h2M56 63h2M68 72h2M68 73h2" />
<path stroke="rgba(110,110,110,0.9686274509803922)" d="M52 58h2M52 59h2M64 66h2M64 67h2" />
<path stroke="rgba(111,111,111,0.9921568627450981)" d="M52 60h2M52 61h2" />
<path stroke="rgba(124,124,124,0.7529411764705882)" d="M54 60h4M54 61h4M58 62h2M58 63h2M64 68h2M64 69h2M66 70h2M66 71h2M66 72h2M66 73h2" />
<path stroke="rgba(109,109,109,0.9333333333333333)" d="M60 62h2M60 63h2M60 64h2M60 65h2M62 66h2M62 67h2" />
<path stroke="rgba(107,107,107,0.8588235294117647)" d="M62 64h2M62 65h2" />
<path stroke="rgba(101,101,101,0.7137254901960784)" d="M66 68h2M66 69h2" />
<path stroke="rgba(14,14,14,0.6588235294117647)" d="M96 68h2M96 69h2M94 70h4M94 71h4" />
<path stroke="rgba(14,14,14,0.6627450980392157)" d="M52 72h4M52 73h4M50 74h2M56 74h2M50 75h2M56 75h2M50 76h2M56 76h2M50 77h2M56 77h2M52 78h4M52 79h4" />
<path stroke="rgba(109,109,109,0.7607843137254902)" d="M82 72h2M82 73h2M82 74h2M82 75h2" />
<path stroke="rgba(12,12,12,0.6823529411764706)" d="M96 72h2M96 73h2M96 74h4M96 75h4M96 76h4M96 77h4M98 78h2M98 79h2M98 80h2M98 81h2" />
<path stroke="rgba(149,149,149,0.9921568627450981)" d="M52 74h2M52 75h2" />
<path stroke="rgba(109,109,109,0.9882352941176471)" d="M54 74h2M54 75h2" />
<path stroke="rgba(121,121,121,0.7686274509803922)" d="M68 74h2M68 75h2" />
<path stroke="rgba(106,106,106,0.9490196078431372)" d="M52 76h2M52 77h2" />
<path stroke="rgba(97,97,97,0.9921568627450981)" d="M54 76h2M54 77h2" />
<path stroke="rgba(120,120,120,0.7843137254901961)" d="M68 76h2M68 77h2M70 78h2M70 79h2" />
<path stroke="rgba(92,92,92,0.7607843137254902)" d="M70 76h2M70 77h2" />
<path stroke="rgba(108,108,108,0.7686274509803922)" d="M82 76h2M82 77h2" />
<path stroke="rgba(104,104,104,0.796078431372549)" d="M84 78h2M84 79h2M84 80h2M84 81h2" />
<path stroke="rgba(10,10,10,0.7058823529411765)" d="M98 82h2M98 83h2" />
<path stroke="rgba(13,13,13,0.7058823529411765)" d="M98 84h2M98 85h2" />
<path stroke="rgba(96,96,96,0.03137254901960784)" d="M90 96h2M90 97h2" />
</svg>